<svg width="89" height="134" viewBox="0 0 89 134" fill="none" xmlns="http://www.w3.org/2000/svg">
<path d="M67.8582 129.091H60.928C59.6523 129.091 58.6179 128.057 58.6179 126.781C58.6179 125.505 59.6523 124.471 60.928 124.471H67.8582C69.1339 124.471 70.1682 125.505 70.1682 126.781C70.1682 128.057 69.1342 129.091 67.8582 129.091Z" fill="white"/>
<path d="M88.9375 120.353V131.69C88.9375 132.966 87.9038 134 86.6275 134H2.31007C1.03375 134 0 132.966 0 131.69V120.353C0 108.459 9.64164 98.8235 21.5385 98.8206C25.7428 98.8177 29.4447 96.6549 31.5757 93.3746C33.7166 90.0845 33.496 87.2235 33.496 84.9111L33.5393 84.8043C23.1728 80.5133 15.8817 70.3 15.8817 58.3829V57.4791C11.7655 57.4791 8.66275 54.2262 8.66275 50.393V38.3922C8.57035 34.2138 8.76093 19.4785 19.4046 9.21892C31.7807 -2.70968 51.3932 -1.73368 65.6001 4.64788C66.0621 4.85578 66.0477 5.51704 65.5799 5.71051L61.8751 7.23515C61.3207 7.46327 61.4391 8.28046 62.0339 8.34398L63.8329 8.53745C72.4466 9.45859 80.4481 14.1365 85.4089 21.9214C85.5418 22.1322 85.5042 22.4527 85.3339 22.6346C82.273 25.8716 80.5636 30.1683 80.5636 34.6354V50.393C80.5636 54.3056 77.3901 57.4791 73.4774 57.4791H73.0558V58.3829C73.0558 70.3 65.7647 80.5133 55.3983 84.8043L55.4416 84.9111C55.4416 87.1568 55.2028 90.0568 57.3618 93.3746C59.4929 96.6549 63.1947 98.8177 67.3991 98.8206C79.2959 98.8235 88.9375 108.459 88.9375 120.353Z" fill="#FFDFBA"/>
<path d="M88.9375 120.353V131.69C88.9375 132.966 87.9032 134 86.6275 134H2.31007C1.03433 134 0 132.966 0 131.69V120.353C0 108.459 9.64309 98.825 21.537 98.8206C25.7425 98.8192 29.4453 96.6538 31.5757 93.3746C39.0124 99.7279 49.9208 99.7316 57.3618 93.3746C59.492 96.6538 63.195 98.8192 67.4005 98.8206C79.2945 98.825 88.9375 108.459 88.9375 120.353Z" fill="#F05D42"/>
<path d="M85.4078 21.9229C85.5418 22.1334 85.5042 22.4522 85.333 22.6336C82.273 25.8728 80.5636 30.1681 80.5636 34.6355V50.393C80.5636 53.9702 77.8686 57.4792 73.0559 57.4792V39.6426C73.0559 31.9876 66.8504 25.7822 59.1955 25.7822H29.7421C22.0871 25.7822 15.8817 31.9876 15.8817 39.6426V57.4792C11.7655 57.4792 8.66276 54.2263 8.66276 50.393V38.3922C8.57036 34.2139 8.76094 19.4786 19.4046 9.219C31.7799 -2.70989 51.3944 -1.73331 65.599 4.64882C66.061 4.85644 66.0489 5.51798 65.5802 5.71088L61.8751 7.2361C61.3213 7.46422 61.438 8.28053 62.0334 8.34435L63.8329 8.53753C72.448 9.4578 80.4475 14.1357 85.4078 21.9229Z" fill="#A68225"/>
<path d="M73.0559 58.3829C73.0559 74.1768 60.25 86.97 44.4688 86.97C29.6 86.97 15.8817 75.4107 15.8817 57.4791V39.6425C15.8817 31.9875 22.0871 25.7821 29.7421 25.7821H59.1955C66.8504 25.7821 73.0559 31.9875 73.0559 39.6425V58.3829Z" fill="#FFEBD2"/>
<path d="M37.996 76.8427C42.6961 79.7831 38.9899 86.9943 33.8448 84.9291C23.2664 80.6832 15.8817 70.3745 15.8817 58.3829V39.6425C15.8817 36.7307 16.7798 34.0285 18.3136 31.7976C20.1946 29.0621 24.5445 30.2706 24.5445 33.8674V52.6078C24.5445 63.1503 30.0863 71.8939 37.996 76.8427Z" fill="#FFF3E4"/>
<path d="M55.7678 89.6526C48.6537 92.6305 40.8356 92.8615 33.1696 89.6526C33.5612 88.028 33.4959 86.9758 33.4959 84.9112L33.5392 84.8043C40.4931 87.6907 48.4308 87.6965 55.3982 84.8043L55.4416 84.9112C55.4416 86.9766 55.3763 88.0286 55.7678 89.6526Z" fill="#FFD6A6"/>
<path d="M33.1731 105.796C32.1053 106.132 30.9601 106.317 29.7323 106.328C17.8077 106.433 8.08523 115.862 8.08523 127.787V129.957C8.08523 132.19 6.27529 134 4.04262 134H2.31007C1.03433 134 0 132.966 0 131.69V120.353C0 108.459 9.64309 98.825 21.537 98.8206C25.7425 98.8192 29.4453 96.6538 31.5757 93.3746C32.4345 94.1081 33.3539 94.7673 34.3224 95.3445C38.5824 97.883 37.9036 104.309 33.1731 105.796Z" fill="#F77D67"/>
<path d="M55.7644 105.796C56.8323 106.132 57.9775 106.317 59.2053 106.328C71.1298 106.433 80.8523 115.862 80.8523 127.787V129.957C80.8523 132.19 82.6623 134 84.895 134H86.6275C87.9032 134 88.9376 132.966 88.9376 131.69V120.353C88.9376 108.459 79.2945 98.825 67.4005 98.8206C63.1951 98.8192 59.4923 96.6538 57.3618 93.3746C56.5031 94.1081 55.5837 94.7673 54.6152 95.3445C50.3554 97.883 51.034 104.309 55.7644 105.796Z" fill="#CA523C"/>
<path d="M65.5799 5.71051C62.1847 7.10781 61.7007 7.41591 60.5243 7.23342C41.5604 4.29386 24.9222 12.1403 19.2717 30.561V30.5639C17.158 32.9953 15.8817 36.1716 15.8817 39.6425V50.4776C15.8817 55.152 8.66276 55.4774 8.66276 50.393V38.3922C8.57036 34.2138 8.76094 19.4785 19.4046 9.21892C31.7808 -2.70968 51.3932 -1.73368 65.6001 4.64788C66.0621 4.85578 66.0477 5.51704 65.5799 5.71051Z" fill="#D2A121"/>
<path d="M44.8556 82.3609C45.9569 82.0229 46.7258 82.5652 47.1624 83.9877C47.599 85.4102 47.2857 86.7616 46.2226 88.0419C45.721 88.6979 45.2178 89.1034 44.713 89.2583C43.9788 89.4837 43.4284 89.3262 43.0618 88.786C43.7042 88.5889 43.8426 87.5673 43.4769 85.7214C43.3115 85.019 43.3279 84.3361 43.526 83.6728C43.7241 83.0095 44.1673 82.5722 44.8556 82.3609ZM44.7651 75.6857C44.9482 76.2823 44.5808 76.7214 43.6631 77.003C42.7912 77.2706 42.2637 77.1061 42.0807 76.5096C40.7991 72.3338 41.8491 67.1663 45.2308 61.007C46.5984 58.4283 47.9659 55.8496 49.3335 53.2708C50.7329 50.6321 51.7195 47.7937 52.2934 44.7556C52.9132 41.7034 52.7865 38.7548 51.9133 35.9098C50.6317 31.7341 47.9948 30.2588 44.0026 31.4841C40.561 32.5403 38.4699 35.2156 37.7293 39.5099C37.3499 42.0364 37.4771 44.3321 38.1108 46.3971C38.3643 47.223 38.7096 48.0209 39.1466 48.7905C40.3837 51.0217 41.8971 51.8627 43.6867 51.3135C43.8839 51.9559 43.4777 52.432 42.4682 52.7418C39.6231 53.615 37.3581 52.7788 35.673 50.2332C35.1161 49.3999 34.6967 48.5244 34.4151 47.6067C33.7813 45.5417 33.7389 43.1949 34.2877 40.5661C35.5023 34.8712 38.9087 31.1646 44.5069 29.4464C47.6273 28.4887 50.2229 28.5206 52.2937 29.542C54.3504 30.5174 55.7379 32.1753 56.4561 34.5156C57.1603 36.8099 57.3952 39.0475 57.1607 41.2283C56.9121 43.3632 56.3549 45.392 55.4889 47.3147C54.6688 49.2233 53.704 51.1512 52.5945 53.0985C51.485 55.0457 50.3455 56.977 49.176 58.8924C48.0524 60.7938 47.0435 62.6599 46.1494 64.4909C44.1984 68.6043 43.737 72.3359 44.7651 75.6857Z" fill="black"/>
</svg>
