<?xml version="1.0"?>
<svg xmlns="http://www.w3.org/2000/svg" xmlns:xlink="http://www.w3.org/1999/xlink" xmlns:svgjs="http://svgjs.com/svgjs" version="1.1" width="512" height="512" x="0" y="0" viewBox="0 0 512 512" style="enable-background:new 0 0 512 512" xml:space="preserve" class=""><g><g xmlns="http://www.w3.org/2000/svg"><path d="m481 158.5v90l-45 52.5-45-7.5v-90l45-52.5z" fill="#75cbb3" data-original="#66ccff" style="" class=""/><path d="m481 248.5v90l-45 52.5-45-7.5v-90z" fill="#e1e6f0" data-original="#e1e6f0" style="" class=""/><g><path d="m481 338.5v107.8l-90 45v-107.8z" fill="#d5e155" data-original="#79cc52" style="" class=""/><path d="m481 65.7v92.8l-90 45v-182.8z" fill="#f6cb51" data-original="#ffbe40" style="" class=""/></g><g id="Book_1_"><g><path d="m421 512h-345c-24.814 0-45-20.186-45-45v-422c0-24.814 20.186-45 45-45h345z" fill="#f12c56" data-original="#ff7f40" style="" class=""/></g></g><path d="m226 0h195v512h-195z" fill="#f12c56" data-original="#f25a3c" style="" class=""/><g><path d="m274.6 249.699-10.499 10.8c-5.7 5.7-15.601 5.7-21.301 0l-16.8-16.8-4.501-4.499c-5.7-6-5.7-15.3 0-21.301l10.801-10.499-84.9-84.9-10.499 10.499c-41.102 41.1-41.102 107.701 0 148.5l63.6 63.6c7.798 7.8 16.5 14.101 25.499 18.9 39.6 20.7 89.7 14.399 122.999-18.9l10.501-10.499z" fill="#2d3652" data-original="#4d6666" style="" class=""/></g><g fill="#3a4d4d"><path d="m226 201.154v12.444l6.226-6.216z" fill="#2d3652" data-original="#3a4d4d" style="" class=""/><path d="m359.5 334.6-10.501 10.499c-33.3 33.3-83.399 39.6-122.999 18.9v-120.3l16.8 16.8c5.7 5.7 15.601 5.7 21.301 0l10.499-10.8z" fill="#2d3652" data-original="#3a4d4d" style="" class=""/></g></g></g></svg>
