<svg width="123" height="126" viewBox="0 0 123 126" fill="none" xmlns="http://www.w3.org/2000/svg">
<path d="M122.239 39.0059V61.1543L110.015 74.0742L97.791 72.2285V50.0801L110.015 37.1602L122.239 39.0059Z" fill="#75CBB3"/>
<path d="M122.239 61.1543V83.3027L110.015 96.2227L97.791 94.377V72.2285L122.239 61.1543Z" fill="#E1E6F0"/>
<path d="M122.239 83.3027V109.832L97.791 120.906V94.377L122.239 83.3027Z" fill="#D5E155"/>
<path d="M122.239 16.1683V39.0058L97.791 50.0801V5.09412L122.239 16.1683Z" fill="#F6CB51"/>
<path d="M105.94 126H12.2239C5.48336 126 0 121.032 0 114.926V11.0742C0 4.96765 5.48336 0 12.2239 0H105.94V126Z" fill="#F12C56"/>
<path d="M52.9702 0H105.94V126H52.9702V0Z" fill="#F12C56"/>
<path d="M66.1719 61.4494L63.32 64.1072C61.7716 65.5099 59.0821 65.5099 57.5337 64.1072L52.9701 59.9728L51.7475 58.8656C50.1991 57.3891 50.1991 55.1004 51.7475 53.6236L54.6815 51.0398L31.6191 30.1465L28.7671 32.7302C17.6021 42.8447 17.6021 59.2348 28.7671 69.2751L46.0436 84.9267C48.1618 86.8462 50.5256 88.3969 52.9701 89.5779C63.7272 94.672 77.3364 93.1214 86.3818 84.9267L89.2343 82.343L66.1719 61.4494Z" fill="#2D3652"/>
<path d="M52.9702 49.5027V52.5651L54.6614 51.0354L52.9702 49.5027Z" fill="#2D3652"/>
<path d="M89.2343 82.3429L86.3818 84.9267C77.3361 93.1216 63.7272 94.672 52.9702 89.5779V59.9728L57.5337 64.1072C59.0821 65.5099 61.7716 65.5099 63.32 64.1072L66.1719 61.4493L89.2343 82.3429Z" fill="#2D3652"/>
</svg>
