<svg width="621" height="203" viewBox="0 0 621 203" fill="none" xmlns="http://www.w3.org/2000/svg">
<g id="hero-figure22">
<g id="Group 58">
<rect id="Rectangle 23" y="1" width="620" height="200" fill="#C4C4C4"/>
<path id="Vector" d="M219 2.93065L418.998 1.96532C529.452 1.4322 619.428 90.543 619.961 200.998L419.963 201.963C309.508 202.496 219.533 113.385 219 2.93065Z" fill="#2D3652"/>
<path id="Vector_2" d="M620.482 201.416L521.332 201.895C466.017 202.162 420.958 157.607 420.692 102.379L519.842 101.901C575.159 101.634 620.216 146.188 620.482 201.416Z" fill="#75CBB3"/>
<path id="Vector_3" d="M99.9998 0.633247L100.222 100.633C100.345 155.861 55.6732 200.732 0.444932 200.855L0.222466 100.855C0.0996026 45.6276 44.7715 0.756111 99.9998 0.633247Z" fill="white"/>
<path id="Vector_4" d="M200.889 199.999L200.667 99.9997C200.544 44.7718 155.672 0.0995485 100.445 0.222412L100.667 100.222C100.79 155.45 145.661 200.122 200.889 199.999Z" fill="#FFC700"/>
</g>
</g>
</svg>
