<svg width="111" height="142" viewBox="0 0 111 142" fill="none" xmlns="http://www.w3.org/2000/svg">
<g id="Patterns">
<g id="Clarence">
<g id="Shape">
<path id="pattern13" d="M76.2042 2.00023C68.9155 4.69711 61.3754 6.78834 53.9047 8.91274C45.9424 11.1779 37.575 11.1496 29.4456 11.9812C24.5465 12.4793 19.8234 13.4759 15.9173 16.7004C13.1851 18.9582 11.3399 21.6717 10.2677 25.0443C8.77378 29.7428 8.72233 34.8607 6.98194 39.4656C6.57914 40.5314 6.03774 41.609 5.10923 42.3137C4.337 42.8984 3.36875 43.1746 2.51272 43.5606C1.75066 43.9045 1.44527 44.4884 1.36187 45.2301C1.10827 47.4922 2.45787 50.405 2.86319 52.7561C2.94899 53.2527 3.03961 53.8884 3.29924 54.326C3.48501 54.6382 3.7508 54.6301 3.98213 54.6144C5.7783 54.492 7.66198 54.5812 9.43306 54.1386C11.4632 53.6313 12.8711 52.3504 13.7604 50.5942C15.2823 47.5829 15.4106 43.6913 16.0232 40.2656C16.6302 36.8846 17.2912 33.4813 18.4664 30.2428C19.4594 27.5014 20.8604 24.9342 22.8423 22.7794C25.3273 20.0804 28.7506 18.6311 32.2043 17.7461C40.6994 15.572 49.7932 15.793 58.413 13.7198C62.7018 12.6884 66.9568 11.3767 71.1729 10.0832C74.7833 8.97577 78.4254 7.79302 81.8185 6.18892C82.774 5.73756 84.0598 5.18734 84.5761 4.17589C84.8267 3.68495 84.7834 3.18849 84.6959 2.71339C84.5657 2.00802 84.2533 1.29867 83.6605 0.8732C81.6998 -0.535976 78.1439 1.18761 76.2069 2.00024" fill="#137D9F"/>
<path id="pattern12" d="M82.0112 7.40779C78.1359 9.06396 74.1192 10.3592 70.0937 11.5783C67.4485 12.3792 64.791 13.1482 62.1368 13.9215C58.0882 15.1017 53.9424 15.8052 49.7729 16.3742C45.2479 16.992 40.6608 17.4865 36.2021 18.3796C31.1422 19.3932 26.3121 21.0357 22.902 25.1591C20.1926 28.4384 18.6927 32.4656 17.64 36.5399C16.9863 39.0726 16.4985 41.6415 16.0349 44.2122C15.6022 46.6098 15.3718 49.1183 14.4081 51.38C13.1118 54.4219 10.5869 55.8549 7.83375 57.327C6.81356 57.8724 6.10782 58.7763 5.5829 59.7624C4.32439 62.1258 3.75485 64.9005 3.3027 67.5748C3.24356 67.9241 3.18545 68.2864 3.14129 68.6611C3.05413 69.4072 3.02505 70.159 3.05431 70.9097C3.05409 70.9636 3.05764 71.0176 3.0612 71.0715C3.09836 71.5982 3.12812 72.223 3.42542 72.6881C3.60112 72.9629 3.89014 72.9555 4.17555 72.907C9.55379 71.9621 15.1837 70.6531 18.366 65.9468C20.2581 63.1495 20.5261 59.6378 21.0596 56.3311C21.6685 52.537 22.2951 48.7301 23.1216 44.9925C24.1354 40.4061 25.4058 35.6805 27.8108 31.5799C30.3298 27.2862 34.1112 24.9952 38.6876 23.4434C44.5494 21.4556 50.8028 20.6228 56.9125 19.4679C63.0006 18.3172 68.9004 16.5432 74.8047 14.7196C78.3542 13.6231 81.9654 12.48 85.2706 10.8835C86.2338 10.4182 87.1909 9.87891 87.9458 9.08529C88.4922 8.5136 89.0343 7.80271 89.2219 7.024C89.3399 6.52712 89.1844 5.79391 88.7474 5.47491C87.9261 4.87433 86.6531 5.40579 85.8188 5.72059C84.5228 6.21042 83.2667 6.82394 82.0112 7.40941" fill="#0ABBAB"/>
<path id="pattern11" d="M86.4139 11.24C82.9509 12.9384 79.3017 14.1923 75.6356 15.3497C73.0999 16.1478 70.5422 16.907 67.9958 17.676C63.8725 18.921 59.6495 19.7568 55.4256 20.5809C50.8128 21.4814 46.1767 22.4331 41.7138 23.8373C39.0885 24.6636 36.4672 25.6706 34.0964 27.1164C31.6758 28.5932 29.9273 30.8136 28.5706 33.2695C25.8083 38.2718 24.46 44.0165 23.3302 49.5711C22.7252 52.5473 22.2192 55.5421 21.7245 58.5381C21.263 61.332 21.0004 64.2238 19.7214 66.7933C17.6979 70.8687 13.7888 73.202 9.96826 75.3582C8.67206 76.0893 7.55758 77.0507 6.56545 78.1302C4.38903 80.4987 2.6587 83.0076 1.53874 86.0646C1.39032 86.4466 1.26719 86.8379 1.17018 87.2361C1.01749 87.931 0.913156 88.6632 1.05349 89.3819C1.0614 89.424 1.07147 89.465 1.08155 89.5044C1.21785 90.0273 1.49437 90.2608 1.89258 90.3838C2.14873 90.463 2.49557 90.3696 2.85391 90.2358C9.42471 87.7831 16.859 85.3772 21.144 79.5946C23.3559 76.6096 23.6758 73.0128 24.2129 69.3922C24.8782 64.8966 25.5472 60.3902 26.3864 55.9341C27.4597 50.2315 28.6932 44.3435 31.176 39.0462C32.3622 36.5173 33.9891 34.1271 36.2731 32.4643C38.2289 31.0411 40.4776 29.9646 42.6943 29.0536C48.4025 26.7084 54.4733 25.2996 60.4771 23.7988C66.2257 22.3628 71.838 20.5633 77.4569 18.7132C80.6062 17.6761 83.8176 16.6236 86.7393 15.1505C87.6426 14.6955 88.5145 14.1508 89.2873 13.4709C90.2326 12.6392 91.3104 11.6954 91.8161 10.5832C92.02 10.1338 92.3274 9.42456 92.0572 8.96681C91.4371 7.91296 87.2585 10.7944 86.4085 11.2411" fill="#B2CD0D"/>
<path id="pattern10" d="M88.3498 15.3477C85.2358 17.1306 81.8952 18.4103 78.5179 19.5739C76.0457 20.4268 73.5381 21.2326 71.0515 22.0368C66.8862 23.3844 62.5812 24.3504 58.3403 25.4414C53.5537 26.6725 48.7893 28.1281 44.2367 30.0221C41.6914 31.0818 39.1288 32.2833 36.8642 33.9004C34.2595 35.761 32.4969 38.4374 31.2386 41.3393C28.5778 47.4781 27.3488 54.2582 26.2274 60.8161C25.6388 64.2597 25.1278 67.7165 24.6206 71.1718C24.2288 73.8394 24.0761 76.7071 23.0196 79.2149C20.9375 84.1558 16.084 87.2078 11.6611 89.8015C10.2659 90.6189 8.91572 91.512 7.60035 92.4576C5.11238 94.2458 1.93431 96.1369 0.535606 98.967C0.401292 99.2362 0.267442 99.5242 0.208599 99.7991C0.0794651 100.381 0.286844 100.824 0.625108 101.048C0.652416 101.067 0.680783 101.085 0.71008 101.102C1.13786 101.323 1.81874 101.241 2.25966 101.154C2.65129 101.068 3.03178 100.937 3.39369 100.764C10.6335 97.4089 18.5267 93.193 23.0956 86.6047C25.1398 83.6564 25.5148 80.3571 25.9917 76.8019C26.5954 72.301 27.0931 67.7776 27.7448 63.2931C28.5813 57.5368 29.5245 51.5662 31.8468 46.1775C34.1097 40.9278 38.2166 37.7928 43.3728 35.7443C48.9124 33.5437 54.8381 32.4128 60.6239 30.9237C66.1733 29.4918 71.4616 27.4223 76.7925 25.3638C79.7524 24.2206 82.7657 23.0376 85.4717 21.4672C86.3581 20.9465 87.1854 20.3314 87.9394 19.6325C89.3603 18.3297 90.7478 16.9016 91.7657 15.2599C92.1962 14.5658 92.6772 13.7953 92.8918 13.0064C93.141 12.0904 91.592 13.1931 91.3893 13.3277C90.3754 14.0005 89.3915 14.7149 88.3498 15.3455" fill="#EAE9F9"/>
<path id="pattern9" d="M87.6905 21.399C84.7603 23.5769 81.5769 25.3121 78.2529 26.7627C75.8676 27.8031 73.3616 28.6709 70.9508 29.5964C66.9014 31.1523 62.5 31.9093 58.2199 32.8059C53.3965 33.8162 48.5031 34.9109 43.9187 36.6538C41.3719 37.6229 38.8881 38.7356 36.8116 40.5779C34.551 42.5839 33.0063 45.1223 31.9413 47.9312C29.7535 53.7127 29.0264 60.027 28.3326 66.1312C27.9673 69.3307 27.6543 72.5363 27.2836 75.7352C26.9711 78.4297 26.8462 81.3719 25.9019 83.936C24.0361 89.0098 19.5097 93.0083 15.5065 96.4088C14.1541 97.5565 12.8247 98.7366 11.5029 99.9135C8.36467 102.711 4.13516 105.307 2.76138 109.519C2.62051 109.95 2.49676 110.412 2.48987 110.873C2.47916 111.664 2.8099 112.634 3.53421 113.069C3.58217 113.099 3.63193 113.126 3.68319 113.15C4.46123 113.497 5.30625 113.165 6.05614 112.895C6.51287 112.73 6.98308 112.436 7.37454 112.151C11.665 109.034 15.5925 105.165 19.1239 101.153C22.8507 96.9246 26.3677 92.3634 29.0204 87.4341C29.9238 85.7535 30.7786 83.9757 31.2651 82.1057C31.7176 80.3645 31.7976 78.4848 31.9231 76.6958C32.2097 72.6032 32.2397 68.4885 32.4055 64.398C32.6107 59.244 32.8542 53.8324 34.626 48.9269C35.5144 46.4672 36.9447 44.2011 38.9206 42.47C40.7482 40.8693 43.1668 40.1385 45.5049 39.711C50.9617 38.7114 56.6162 39.1678 62.1589 38.8846C64.9233 38.7435 67.7023 38.4499 70.3802 37.7256C72.8427 37.0597 75.146 35.9241 77.404 34.7819C80.2606 33.338 83.1028 31.721 85.5718 29.7434C86.3943 29.0781 87.1423 28.3255 87.8026 27.499C89.3112 25.6263 90.7659 23.5964 91.6195 21.3296C91.928 20.5103 92.1808 19.6007 92.2797 18.7611C92.4239 17.5426 91.0124 18.6372 90.6727 18.9064C89.6576 19.711 88.7116 20.5993 87.6921 21.399" fill="#FE9572"/>
<path id="pattern8" d="M89.2765 28.5412C86.5812 31.4323 83.6065 34.0068 80.2545 36.0377C78.0535 37.3713 75.6328 38.6609 73.1759 39.3355C69.0207 40.4766 64.4404 40.162 60.0824 40.0361C55.2771 39.897 50.3928 39.7041 45.7147 40.4779C43.1898 40.8956 40.8579 41.8285 39.056 43.7613C37.363 45.5759 36.2224 47.7762 35.5361 50.1493C34.0924 55.1444 34.1924 60.5287 34.2286 65.6794C34.2484 68.4464 34.2983 71.214 34.2383 73.9807C34.1843 76.4708 34.1857 79.1261 33.5762 81.5546C31.8772 88.3174 27.4754 94.5933 23.563 100.225C22.1829 102.212 20.8108 104.22 19.4098 106.188C17.1527 109.361 14.6489 112.37 12.3504 115.524C10.363 118.251 8.5757 121.211 7.87841 124.538C7.72774 125.256 7.5973 126.033 7.67145 126.738C7.77515 127.728 8.13072 129.197 9.37892 129.366C9.45028 129.376 9.52244 129.38 9.59448 129.377C10.8274 129.328 11.947 128.151 12.7653 127.364C13.2771 126.865 13.7613 126.338 14.2159 125.786C18.9536 120.122 22.9611 113.673 26.6903 107.24C30.4961 100.665 34.0921 93.8647 36.8693 86.833C38.4158 82.9169 39.4744 79.1621 39.4522 74.9132C39.432 71.3411 39.0069 67.778 38.688 64.2327C38.2923 59.8377 37.8585 55.1508 39.1527 50.8502C39.8403 48.5656 41.1562 46.4399 42.9384 44.8457C44.7346 43.2354 47.2003 42.7835 49.4846 42.8124C54.9133 42.8808 60.3644 44.8172 65.7881 45.8261C68.3589 46.3043 70.9932 46.6631 73.613 46.4804C76.1579 46.3027 78.342 45.3956 80.5755 44.2654C83.6155 42.7288 86.5807 40.9076 89.1383 38.7078C89.9991 37.9652 90.776 37.1305 91.4551 36.2185C93.2611 33.7994 94.8644 31.0143 95.1328 27.9098C95.2177 26.9292 95.1789 25.7799 94.7481 24.8824C93.5292 22.3418 90.0844 27.6359 89.2765 28.5412Z" fill="#F75F68"/>
<path id="pattern7" d="M94.6123 35.8052C91.6958 39.1593 88.5178 42.2858 84.7935 44.6436C82.5466 46.0658 79.9717 47.5049 77.3684 47.8938C72.9024 48.5613 68.0722 47.0952 63.6352 45.9662C58.8503 44.7483 53.6204 42.9353 48.788 43.4234C46.3971 43.6637 44.4617 44.592 42.895 46.5548C41.5206 48.2851 40.6071 50.3358 40.2399 52.5152C39.5173 56.7193 40.3288 61.1008 40.9956 65.26C41.6924 69.6227 42.5426 74.1424 42.0293 78.5734C41.6658 81.7148 40.4125 84.7976 39.2618 87.7173C37.527 92.1179 35.5263 96.417 33.4397 100.652C32.1082 103.356 30.7545 106.067 29.3536 108.736C26.5687 114.043 23.5125 119.221 20.6054 124.473C18.4582 128.351 16.1219 132.467 15.1852 136.822C15.0554 137.427 14.9599 138.097 15.0798 138.702C15.3338 139.983 16.9888 139.477 17.676 139.108C17.7748 139.053 17.8703 138.992 17.962 138.926C19.5564 137.815 20.7771 136.102 21.8494 134.524C22.3506 133.788 22.8369 133.014 23.3085 132.25C27.7906 124.987 31.7627 117.337 35.486 109.626C38.9271 102.501 42.2668 95.2341 44.8403 87.7663C46.115 84.0667 47.1009 80.5929 46.8208 76.6489C46.5916 73.4241 45.8818 70.2474 45.2691 67.0863C44.5022 63.1306 43.6761 58.8914 44.5958 54.8812C45.0899 52.7203 46.2388 50.6399 47.8264 49.0882C49.59 47.3641 51.979 46.9167 54.2848 47.0282C59.7077 47.2913 65.1376 49.7383 70.4484 51.4217C73.0773 52.2557 75.7761 53.0452 78.5347 53.2892C80.9447 53.5041 83.0134 53.0877 85.1525 52.0502C88.1138 50.6147 90.8454 48.7468 93.2578 46.5078C94.0952 45.721 94.8811 44.8811 95.6107 43.9933C97.9584 41.1578 100.028 37.804 100.94 34.1826C101.169 33.2693 101.375 32.0431 100.949 31.1621C99.6291 28.4285 95.3724 34.9043 94.6123 35.8057" fill="#7158D1"/>
<path id="pattern1" d="M106.482 79.0476C104.294 82.2647 101.214 83.2022 97.5518 83.8039C93.0787 84.5408 88.6937 85.6468 84.6262 87.6018C81.9501 88.8859 78.5944 90.5854 76.8322 93.1157C74.7963 96.0392 75.7734 100.394 76.652 103.493C77.9588 108.102 80.0269 112.885 82.5368 117.048C83.5219 118.683 84.0513 119.61 82.8865 121.199C82.7237 121.425 82.491 121.711 82.6521 122.023C82.7758 122.262 83.1053 122.456 83.4132 122.645C84.094 123.055 84.7416 123.518 85.3502 124.029C85.8977 124.494 86.5898 125.079 87.355 125.082C87.8574 125.084 88.2119 124.84 88.4767 124.633C88.9385 124.274 90.3114 123.486 90.0053 122.727C89.7463 122.086 89.195 121.496 88.796 120.887C87.7444 119.289 86.8249 117.582 85.982 115.887C83.1492 110.193 79.7387 101.964 84.3545 96.2311C87.5865 92.2181 91.8463 89.5547 96.8523 88.6332C100.206 88.0163 103.548 87.6319 106.524 85.859C107.638 85.195 108.546 84.3023 109.165 83.2007C109.796 82.0765 110.068 80.389 109.43 79.177C108.873 78.1239 107.177 78.1223 106.482 79.0476Z" fill="#0ABBAB"/>
<path id="pattern2" d="M105.427 72.9008C105.415 72.0918 104.589 71.5545 103.877 71.8266C103.747 71.8796 103.63 71.9598 103.534 72.0619C101.905 73.8406 99.8176 75.315 97.5439 76.0761C96.5417 76.4112 95.5063 76.6808 94.4732 76.9332C92.5219 77.4105 90.5592 77.9033 88.6005 78.346C86.4249 78.8379 84.2225 79.2985 82.0581 79.8288C81.1102 80.0621 80.1547 80.3111 79.2154 80.5719C76.3017 81.3887 73.4083 82.3959 70.722 83.7561C68.7404 84.759 67.0308 85.955 66.5533 88.2854C66.072 90.6368 66.6077 93.2351 67.1648 95.4899C68.7077 101.73 71.5774 107.847 74.0818 113.829C74.5269 114.893 75.1766 116.122 75.0637 117.22C74.9693 118.137 74.4931 118.998 74.0486 119.874C73.9557 120.058 73.86 120.26 73.8376 120.456C73.8151 120.6 73.8596 120.745 73.9583 120.852C74.1305 121.036 74.5009 121.132 74.8687 121.208C75.461 121.331 76.0582 121.447 76.6533 121.561C76.8617 121.601 77.0674 121.64 77.2688 121.681C78.0291 121.836 78.879 121.961 79.6399 121.727C80.0863 121.585 80.4934 121.34 80.8285 121.013C81.5275 120.365 82.7361 119.394 82.502 118.269C82.3261 117.425 81.8713 116.619 81.5005 115.835C80.6682 114.072 79.8807 112.281 79.0802 110.507C78.1265 108.394 77.1993 106.246 76.4171 104.079C75.2258 100.773 73.8724 96.7818 74.5221 93.1946C75.093 90.0584 77.9211 88.022 80.41 86.4582C83.6915 84.3962 87.4038 83.2047 91.2143 82.3701C92.9788 81.9832 94.7945 81.706 96.5445 81.3099C98.0636 80.9663 99.5761 80.5071 100.937 79.8074C101.987 79.2719 102.915 78.5252 103.662 77.6142C104.689 76.3695 105.451 74.5322 105.427 72.9008Z" fill="#FFD300"/>
<path id="pattern3" d="M102.855 66.2008C102.912 65.6461 102.867 64.65 102.043 64.652C101.945 64.6569 101.85 64.689 101.769 64.7448C99.6298 66.013 97.8522 67.773 95.5546 68.7631C94.4959 69.2192 93.3954 69.6178 92.301 69.9874C90.2303 70.6805 88.1022 71.3415 86.0131 71.9283C83.6726 72.5857 81.2311 73.0522 78.8256 73.5432C77.729 73.7675 76.6298 73.9907 75.5354 74.2226C72.1962 74.9315 68.8468 75.7305 65.6448 76.8643C63.4191 77.6524 60.6862 78.4771 59.2206 80.4969C57.703 82.5866 58.0264 85.4101 58.3879 87.7807C59.6234 95.8694 63.4003 103.45 65.25 111.449C65.6163 113.034 66.1472 114.829 65.7414 116.409C65.4072 117.707 64.6654 118.945 64.138 120.191C64.0368 120.43 63.949 120.692 63.935 120.933C63.9252 121.103 63.9655 121.26 64.104 121.374C64.292 121.529 64.6723 121.577 65.0624 121.58C65.7129 121.583 66.3683 121.549 67.0195 121.491C67.247 121.471 67.4735 121.444 67.6929 121.42C68.5178 121.329 69.3904 121.179 70.1329 120.808C70.5937 120.568 71.0098 120.25 71.3628 119.868C72.3264 118.819 73.3852 117.684 73.3183 116.151C73.2689 115.072 72.8847 114.023 72.5634 113.005C71.9299 110.995 71.2424 109.017 70.4762 107.058C69.5697 104.737 68.6137 102.408 67.7681 100.069C66.4266 96.3565 64.91 92.1224 65.0733 88.0924C65.2378 84.0301 68.5459 82.398 71.783 80.8692C76.2484 78.761 81.0972 77.5271 85.95 76.4736C87.9889 76.0308 90.0296 75.5567 92.0455 75.0485C93.6429 74.646 95.2545 74.1944 96.7284 73.5312C97.8103 73.0456 98.8056 72.3862 99.6752 71.5791C101.149 70.2114 102.666 68.1406 102.855 66.2008Z" fill="#FE9572"/>
<path id="pattern4" d="M101.473 59.1326C101.764 58.4256 102.155 57.433 101.879 56.6858C101.862 56.6296 101.816 56.5868 101.759 56.5736C100.903 56.4622 99.8126 57.6984 99.204 58.1975C98.0479 59.1491 96.896 60.1369 95.6377 60.9338C94.5387 61.6305 93.3914 62.2882 92.2363 62.8827C89.9896 64.0321 87.6573 65.0051 85.2603 65.7931C82.8192 66.5981 80.4607 67.2097 77.8946 67.4941C76.7673 67.6189 75.6207 67.7091 74.4839 67.7901C71.0696 68.0343 67.597 68.1785 64.2587 68.8103C61.7516 69.2854 58.9792 69.9643 56.7614 71.3334C54.4015 72.7898 53.1527 75.2023 52.8564 77.8093C51.7776 87.2584 57.2643 96.9134 58.2063 106.383C58.5222 109.558 57.7676 112.659 56.4952 115.553C55.2587 118.367 53.3796 121.054 52.3097 123.958C52.1844 124.299 52.1137 124.596 52.1592 124.796C52.1914 124.935 52.2988 125.015 52.551 124.986C52.8469 124.954 53.3389 124.764 53.852 124.542C54.6873 124.18 55.5216 123.794 56.342 123.401C56.6221 123.266 56.8919 123.133 57.1516 123.004C58.0491 122.562 58.992 122.115 59.7738 121.523C60.2693 121.155 60.7254 120.737 61.1347 120.276C62.4104 118.806 63.6736 117.211 63.8705 115.201C64.2006 111.83 63.0767 107.897 62.1796 104.735C61.4719 102.242 60.6447 99.747 59.8946 97.2566C58.6508 93.1145 57.3527 88.7229 57.3057 84.3501C57.2843 82.3654 57.7285 80.4722 59.1731 79.0363C60.5642 77.6536 62.5407 76.9206 64.3062 76.19C69.5803 74.0072 75.1703 72.6538 80.725 71.2808C83.093 70.6973 85.4251 69.9631 87.7682 69.2823C89.5365 68.7697 91.3226 68.2377 92.9953 67.5272C94.1728 67.0307 95.2856 66.3926 96.3093 65.627C98.5256 63.9634 100.43 61.6674 101.473 59.1326Z" fill="#EAE9F9"/>
<path id="pattern5" d="M102.304 50.6666C102.816 49.7077 103.348 48.6157 103.485 47.5009C103.499 47.3969 103.503 47.2918 103.496 47.1871C103.457 46.1358 101.551 48.2436 101.37 48.4349C100.222 49.6435 99.1353 50.9285 97.9218 52.0604C96.8582 53.0521 95.7408 54.0182 94.5957 54.9087C92.4157 56.6028 90.0415 58.097 87.5362 59.2478C85.0309 60.3985 82.6543 60.7753 79.9158 60.6005C78.7359 60.5255 77.5299 60.3668 76.3526 60.1818C72.761 59.6157 69.1487 58.7119 65.5478 58.2865C62.9515 57.9791 60.3336 57.9666 57.7297 58.4455C54.8125 58.9813 52.5481 60.3914 51.1435 62.8907C48.3811 67.815 49.623 74.2487 50.8155 79.7056C51.9118 84.7258 53.964 90.1813 53.5797 95.3771C53.1109 101.715 49.9609 108.086 47.1909 113.667C45.5546 116.965 43.7863 120.219 42.0435 123.474C40.6715 126.034 39.1373 128.623 38.1162 131.301C37.9348 131.776 37.7138 132.309 37.7035 132.828C37.6988 133.071 37.8048 133.226 38.0939 133.169C38.5713 133.074 39.0435 132.769 39.4665 132.527C40.4421 131.967 41.389 131.304 42.2978 130.623C42.6221 130.38 42.9341 130.139 43.2336 129.899C44.2647 129.077 45.2794 128.205 46.1656 127.239C46.8413 126.5 47.4743 125.723 48.0614 124.911C50.7954 121.144 53.1566 117.058 54.7983 112.738C55.6897 110.394 56.4237 107.911 56.6283 105.375C56.8118 103.096 56.4449 100.753 55.9987 98.5427C55.4938 96.0436 54.8031 93.5447 54.1694 91.0597C53.103 86.8815 52.0581 82.5896 52.101 78.2419C52.1214 76.1737 52.536 74.0737 53.7422 72.3572C55.0432 70.5095 56.8937 69.4969 58.9188 68.7529C64.6907 66.6342 70.9088 66.2281 77.0898 65.6502C80.0857 65.3698 82.8826 64.8529 85.716 63.867C87.7026 63.1741 89.6886 62.3783 91.5389 61.4071C92.8175 60.7322 94.0375 59.9517 95.1862 59.0735C98.1283 56.8298 100.583 53.8851 102.304 50.6666Z" fill="#1DAACC"/>
<path id="pattern6" d="M80.3843 54.4563C75.3741 54.0168 70.438 51.8114 65.6262 50.1799C60.9091 48.5807 54.7201 46.5896 50.3956 49.3349C46.6753 51.697 45.7154 57.1451 45.9733 61.4848C46.2398 65.9588 47.4559 70.3176 48.3485 74.6912C48.7642 76.7279 49.1334 78.7843 49.2617 80.8619C49.4061 83.2125 49.0274 85.3597 48.3617 87.612C45.9019 95.9202 41.981 103.878 38.0833 111.569C35.0789 117.494 31.8851 123.346 28.7629 129.225C27.5679 131.474 26.3729 133.724 25.2677 136.02C24.6072 137.394 23.8348 138.856 23.5677 140.366C23.4998 140.748 23.5395 141.058 23.7802 141.087C24.9793 141.229 26.618 139.726 27.5331 138.94C29.0784 137.614 30.3717 135.963 31.5723 134.305C38.8324 124.283 44.7169 112.761 49.0768 101.118C50.4441 97.4664 52.1018 93.3451 52.0498 89.3775C52.0064 86.0718 51.2267 82.8003 50.5033 79.5917C48.9327 72.6257 46.0382 60.1309 54.8103 57.3162C59.4783 55.8185 64.8738 56.5358 69.8467 57.2875C74.5244 57.9937 79.7106 59.4017 84.3739 58.5104C88.0874 57.8008 91.7521 55.3511 94.618 52.9207C97.9328 50.1086 100.568 46.4618 102.425 42.5345C102.944 41.4372 103.486 40.1808 103.532 38.9439C103.61 36.8402 101.884 38.5513 101.276 39.2582C100.088 40.6414 99.1249 42.2165 97.9706 43.6144C95.1171 47.0715 91.8756 50.2739 88.0038 52.5016C85.535 53.9209 83.2386 54.7066 80.3843 54.4563Z" fill="#EAE9F9"/>
</g>
</g>
</g>
</svg>
