<svg width="128" height="128" viewBox="0 0 128 128" fill="none" xmlns="http://www.w3.org/2000/svg">
<g clip-path="url(#clip0)">
<path d="M53.3039 121.19C53.3039 124.83 56.2538 127.781 59.8946 127.781H68.6822C72.3219 127.781 75.2729 124.83 75.2729 121.19V108.009H53.3039V121.19Z" fill="white"/>
<path d="M42.9512 84.1871C41.03 82.9492 39.2182 81.5461 37.5383 79.9961C36.1041 85.5108 30.6837 89.0079 25.0681 88.0424C19.4514 87.077 15.5103 81.972 15.9984 76.2941C16.4864 70.6163 21.2417 66.259 26.941 66.2676C27.2768 66.2676 27.5997 66.3373 27.9204 66.3662C25.8383 61.4715 24.7645 56.2077 24.7656 50.8892H21.969L20.4512 58.1096C20.2999 58.8294 19.799 59.4258 19.1167 59.6983C18.4334 59.9718 17.66 59.8849 17.055 59.4677L10.9845 55.283L4.39381 61.8737L8.56771 67.9431C8.98499 68.5492 9.07188 69.3226 8.79834 70.0049C8.52588 70.6882 7.92945 71.1891 7.21074 71.3393L0 72.8583V81.6459L7.21932 83.1638C7.93803 83.315 8.53446 83.816 8.808 84.4982C9.08047 85.1805 8.99358 85.9549 8.57629 86.56L4.39381 92.6304L10.9845 99.2211L17.055 95.0461C17.66 94.6289 18.4345 94.5409 19.1178 94.8144C19.8011 95.0869 20.3021 95.6844 20.4533 96.4042L21.969 103.615H30.7567L32.2724 96.3935C32.4236 95.6726 32.9246 95.0762 33.6079 94.8037C34.2912 94.5302 35.0657 94.6171 35.6707 95.0354L41.7412 99.2211L48.6376 92.3247C47.9146 88.9575 45.8647 86.0236 42.9512 84.1871Z" fill="#2D3652"/>
<path d="M103.833 50.8892C103.831 31.9292 90.3713 15.638 71.7523 12.0594C53.1333 8.48085 34.5937 18.6201 27.5632 36.2286C20.5327 53.837 26.9882 73.9578 42.9512 84.1871C46.6091 86.4548 48.8565 90.4335 48.9101 94.7372V103.615C48.9101 107.255 51.86 110.206 55.5008 110.206H73.076C76.7157 110.206 79.6667 107.255 79.6667 103.615V94.9196C79.7225 90.514 82.0149 86.4398 85.7522 84.1056C97.0306 76.8241 103.84 64.3142 103.833 50.8892Z" fill="#F6CB51"/>
<path d="M117.438 27.6479L124.345 22.4678L116.436 11.922L109.529 17.1021C108.107 18.1673 106.184 18.2714 104.655 17.366C103.127 16.4607 102.294 14.724 102.544 12.9658L103.764 4.42168L90.7146 2.55731L89.4949 11.1004C89.245 12.8607 87.9588 14.2959 86.2371 14.7368C84.5154 15.1788 82.6972 14.5394 81.6309 13.117L76.4518 6.20988L65.9071 14.1189L71.0851 21.0261C72.1503 22.4485 72.2543 24.3708 71.349 25.8994C70.4436 27.428 68.7069 28.2604 66.9487 28.0105L58.4046 26.7908L56.5392 39.8403L65.0854 41.06C66.8447 41.311 68.28 42.5972 68.7208 44.3189C69.1617 46.0406 68.5224 47.8588 67.1 48.9251L60.195 54.1052L68.104 64.6499L75.0091 59.4719C76.4304 58.4057 78.3548 58.3005 79.8845 59.2059C81.4131 60.1113 82.2466 61.849 81.9956 63.6083L80.7652 72.1503L93.8147 74.0157L95.0451 65.4694C95.2961 63.7102 96.5823 62.276 98.304 61.8351C100.026 61.3931 101.844 62.0336 102.909 63.4549L108.09 70.3599L118.635 62.4508L113.453 55.5458C112.386 54.1245 112.281 52.2 113.187 50.6704C114.092 49.1418 115.83 48.3083 117.589 48.5604L126.133 49.7811L127.999 36.7316L119.455 35.5109C117.696 35.2588 116.262 33.9737 115.82 32.252C115.379 30.5314 116.018 28.7142 117.438 27.6479ZM92.27 53.6632C83.7763 53.6632 76.8917 46.7786 76.8917 38.2849C76.8917 29.7923 83.7763 22.9066 92.27 22.9066C100.764 22.9066 107.648 29.7923 107.648 38.2849C107.648 46.7786 100.764 53.6632 92.27 53.6632Z" fill="#75CBB3"/>
<path d="M53.3039 114.599H75.2729V118.993H53.3039V114.599Z" fill="#F05D42"/>
<path d="M62.0915 97.0242H66.4853V103.615H62.0915V97.0242Z" fill="#F05D42"/>
<path d="M66.4853 92.6304H62.0915C62.0893 86.8217 58.5076 81.6148 53.084 79.5359C42.2722 75.3084 34.7611 65.3536 33.6648 53.7963C32.5685 42.239 38.0725 31.0495 47.8964 24.8643L50.2274 28.5812C41.8045 33.8815 37.0835 43.4736 38.0232 53.3822C38.9618 63.2898 45.4002 71.8242 54.6694 75.4478C61.7901 78.1714 66.4907 85.0067 66.4853 92.6304Z" fill="#F05D42"/>
<path d="M108.227 81.6459H119.211C120.424 81.6459 121.408 82.6285 121.408 83.8428C121.408 85.056 120.424 86.0397 119.211 86.0397H108.227C107.013 86.0397 106.03 85.056 106.03 83.8428C106.03 82.6285 107.013 81.6459 108.227 81.6459Z" fill="#F05D42"/>
<path d="M103.833 94.8284C104.609 93.8962 105.994 93.7696 106.926 94.5462L116.733 102.717C117.665 103.494 117.792 104.879 117.015 105.811C116.237 106.743 114.853 106.869 113.92 106.093L104.114 97.9221C103.182 97.1454 103.056 95.7605 103.833 94.8284Z" fill="#F05D42"/>
<path d="M95.045 99.2211C96.2583 99.2211 97.242 100.204 97.242 101.418V112.403C97.242 113.616 96.2583 114.599 95.045 114.599C93.8318 114.599 92.8481 113.616 92.8481 112.403V101.418C92.8481 100.204 93.8318 99.2211 95.045 99.2211Z" fill="#F05D42"/>
<path d="M2.1776 37.2379L15.4899 33.9125C16.6677 33.6186 17.8595 34.3341 18.1534 35.5109C18.4473 36.6876 17.7318 37.8794 16.554 38.1733L3.24172 41.4987C2.06389 41.7926 0.872114 41.0772 0.578192 39.9004C0.28427 38.7236 0.999766 37.5319 2.1776 37.2379Z" fill="#F05D42"/>
<path d="M4.97094 13.5429C5.67571 12.556 7.0477 12.3286 8.03459 13.0334L19.8365 21.4638C20.8245 22.1686 21.053 23.5405 20.3482 24.5274C19.6434 25.5143 18.2714 25.7428 17.2845 25.037L5.48262 16.6066C4.49466 15.9018 4.26617 14.5298 4.97094 13.5429Z" fill="#F05D42"/>
<path d="M24.6465 0.358302C25.8222 0.0579439 27.0182 0.767003 27.3186 1.94269L30.7234 15.2603C31.0237 16.436 30.3147 17.6332 29.139 17.9335C27.9633 18.2339 26.7672 17.5238 26.4669 16.3491L23.0621 3.03149C22.7617 1.8558 23.4708 0.65866 24.6465 0.358302Z" fill="#F05D42"/>
</g>
<defs>
<clipPath id="clip0">
<rect width="127.998" height="127.97" fill="white"/>
</clipPath>
</defs>
</svg>
