<svg width="195" height="123" viewBox="0 0 195 123" fill="none" xmlns="http://www.w3.org/2000/svg">
<path d="M0.424943 47.1072L24.3267 9.1766L20.1452 2.82673C19.5856 1.9768 19.8332 0.843546 20.699 0.294127C21.5647 -0.255293 22.7214 -0.0132731 23.2822 0.838958L26.6049 5.88926L29.9323 0.837811C30.4919 -0.0121261 31.6486 -0.255293 32.5131 0.294127C33.3789 0.843546 33.6266 1.97794 33.0693 2.82788L28.889 9.17775L52.7895 47.1083C53.3281 47.9514 53.3573 49.0078 52.8655 49.8784C52.3748 50.7501 51.4401 51.2835 50.4272 51.2835H39.8479C38.8934 51.2835 38.0031 50.8052 37.4867 50.0172L28.4988 36.245C28.0852 35.6118 27.3725 35.2299 26.6072 35.2299C25.8431 35.2299 25.1293 35.6118 24.7157 36.2461L15.7324 50.0172C15.2183 50.8075 14.3281 51.2858 13.3712 51.2858H2.78848C1.77436 51.2858 0.8397 50.7524 0.349001 49.8795C-0.141698 49.0066 -0.113658 47.9503 0.424943 47.1072Z" fill="white"/>
<path d="M73.9333 29.1465C74.9739 29.1465 75.4942 29.5478 75.4942 30.3503C75.4942 30.964 75.305 31.6012 74.9266 32.2621C74.5482 32.923 74.288 33.3715 74.1461 33.6075C74.0515 33.7963 73.9569 33.9379 73.8623 34.0324C73.815 34.1268 73.7204 34.1504 73.5785 34.1032C73.4366 34.0088 73.3656 33.9143 73.3656 33.8199C73.3656 32.923 72.6325 32.4746 71.1661 32.4746C69.6997 32.4746 67.8313 33.6547 65.5608 36.015C66.5541 41.4437 67.5238 44.8897 68.4699 46.3531C68.8483 46.9668 69.5342 47.2737 70.5275 47.2737C72.325 47.2264 75.4469 44.3469 79.8933 38.6349C80.0826 38.871 80.1299 39.1542 80.0353 39.4847C79.988 39.7679 79.6568 40.2872 79.0419 41.0425C76.7241 43.9692 74.5482 46.2351 72.5142 47.8401C71.237 48.8787 69.9599 49.3979 68.6827 49.3979C67.4056 49.3979 66.3886 48.9967 65.6317 48.1942C64.8276 47.1084 63.8816 44.0872 62.7936 39.1306C59.9082 42.7655 58.0634 45.7867 57.2593 48.1942C57.0228 48.7606 56.3842 49.0675 55.3435 49.1147C54.3029 49.2091 53.7826 49.0911 53.7826 48.7606C53.7826 48.6662 53.8772 48.4302 54.0664 48.0526C54.2556 47.6277 54.8705 46.2351 55.9111 43.8748C56.9518 41.4673 57.6613 39.8387 58.0397 38.989C58.4655 38.0921 59.1277 36.6523 60.0264 34.6696C60.9252 32.6398 61.682 31.0112 62.2969 29.7838C64.7093 25.2048 66.3886 22.0656 67.3346 20.3662C69.5578 16.3537 72.2304 12.9077 75.3523 10.0281C78.4743 7.14852 81.5489 5.70874 84.5763 5.70874C85.3331 5.70874 85.9953 5.92117 86.563 6.34602C87.1779 6.72367 87.4853 7.29014 87.4853 8.04544V10.0989C87.4853 10.2877 87.3671 10.3821 87.1306 10.3821C86.9414 10.3821 86.8468 10.3349 86.8468 10.2405C86.8468 8.96596 85.948 8.32867 84.1505 8.32867C82.3531 8.32867 80.6029 8.68272 78.9 9.39081C77.1971 10.0517 75.7307 11.043 74.5009 12.3648C73.271 13.6866 71.9702 15.4096 70.5985 17.5339C67.4765 22.3489 63.787 30.4447 59.5298 41.8214C60.6177 40.358 61.6347 39.0834 62.5808 37.9977C62.4861 37.1952 62.6281 36.5343 63.0065 36.015C63.4322 35.4957 63.8579 35.0237 64.2836 34.5988C64.7093 34.1268 64.9932 33.7963 65.1351 33.6075L65.3479 34.8113C69.0375 31.0348 71.8993 29.1465 73.9333 29.1465Z" fill="white"/>
<path d="M84.4499 29.6422L86.6494 29.713C88.4942 27.2111 90.339 23.9303 92.1838 19.8706C92.6095 19.8233 93.2717 19.5637 94.1705 19.0917C95.0692 18.5724 95.7078 18.1239 96.0862 17.7463C96.5119 17.3214 96.7721 17.109 96.8667 17.109C97.0086 17.109 97.0795 17.1798 97.0795 17.3214C97.0795 17.4158 96.8903 17.6755 96.5119 18.1003C96.1335 18.5252 95.1875 19.9414 93.6738 22.3489C92.2074 24.7092 90.8593 27.1639 89.6295 29.713H95.3767C95.8497 29.713 96.1099 29.7838 96.1572 29.9254C96.2045 30.0671 96.0389 30.2087 95.6605 30.3503C95.3294 30.4447 94.9983 30.5391 94.6671 30.6335C94.3833 30.7279 93.7211 30.8224 92.6805 30.9168C90.3626 31.0584 88.9199 31.5304 88.3523 32.3329C87.832 33.0882 86.9096 35.0709 85.5851 38.2809C83.1254 44.2289 82.747 47.2028 84.4499 47.2028C85.9162 47.2028 88.6125 44.937 92.5385 40.4052L93.8867 38.7058C93.9813 38.8474 94.0286 39.0834 94.0286 39.4138C94.0286 39.6971 93.7684 40.1927 93.2481 40.9008C88.8963 46.4712 84.9702 49.2563 81.4698 49.2563C80.3346 49.2563 79.767 48.8078 79.767 47.9109C79.767 46.778 80.6893 44.3705 82.5341 40.6884L86.3656 32.1205C81.5408 37.9741 79.0811 40.9716 78.9865 41.1133C78.6554 41.5853 78.4898 41.5381 78.4898 40.9716C78.4898 40.594 78.6081 40.2636 78.8446 39.9803C82.0611 35.9678 84.2843 33.159 85.5142 31.554C85.0884 31.554 83.8113 31.6721 81.6827 31.9081C81.2097 31.9081 81.3752 31.5304 82.1794 30.7751C83.0308 30.0198 83.6221 29.6422 83.9532 29.6422H84.4499Z" fill="white"/>
<path d="M105.966 30.7043C105.966 31.318 105.564 32.2149 104.76 33.3951C103.956 34.5752 102.726 36.7703 101.07 39.9803C99.4618 43.1431 98.6577 45.1494 98.6577 45.9991C98.6577 46.8016 98.9888 47.2028 99.651 47.2028C100.55 47.2028 102.087 46.1643 104.263 44.0872C106.439 42.0102 108.426 39.4375 110.223 36.3691C112.068 33.2535 113.179 31.6013 113.558 31.4124C115.592 30.3739 116.845 29.8074 117.318 29.713C117.791 29.6186 118.241 29.5714 118.667 29.5714C119.14 29.5714 119.376 29.7366 119.376 30.0671C119.376 30.3975 119.163 30.5627 118.737 30.5627C117.744 30.5627 116.94 31.0112 116.325 31.9081C115.19 33.5131 111.997 40.5704 106.746 53.08C105.422 56.1956 104.121 58.8627 102.844 61.0814C101.567 63.3473 99.8639 65.5896 97.7353 67.8083C93.9038 71.8208 89.7885 73.827 85.3894 73.827C83.4974 73.827 81.7235 73.4022 80.0679 72.5525C77.1825 71.0419 75.7398 68.4692 75.7398 64.8343V63.6305C75.7398 62.9225 76.0236 62.5684 76.5912 62.5684C76.6858 62.5684 76.7332 62.6156 76.7332 62.71L76.5912 64.4803C76.5912 66.6045 77.2771 68.2331 78.6489 69.3661C79.9733 70.5462 81.6053 71.1363 83.5447 71.1363C85.4367 71.1363 87.2815 70.7823 89.079 70.0742C93.0997 68.3275 96.5055 65.5424 99.2963 61.7187C102.134 57.9422 104.736 53.316 107.101 47.8401C108.236 45.055 109.443 41.7742 110.72 37.9977C108.497 41.0189 106.463 43.4264 104.618 45.2202C101.827 47.9109 99.178 49.2563 96.671 49.2563C95.5358 49.2563 94.9681 48.8078 94.9681 47.9109C94.9681 46.778 95.8905 44.3705 97.7353 40.6884C98.161 39.8387 98.7287 38.6822 99.4382 37.2188C100.148 35.7554 100.621 34.7877 100.857 34.3156C101.141 33.8435 101.283 33.5131 101.283 33.3243C101.283 33.0882 101.212 32.9702 101.07 32.9702C100.739 32.9702 99.8166 33.6547 98.3029 35.0237C96.7893 36.3927 95.0391 38.4225 93.0524 41.1133C92.7686 41.5381 92.603 41.5381 92.5557 41.1133C92.5084 40.6412 92.6267 40.2636 92.9105 39.9803C94.8499 37.384 96.4109 35.4249 97.5934 34.1032C98.8233 32.7342 99.4855 31.9789 99.5801 31.8373C99.722 31.6957 99.9822 31.4596 100.361 31.1292C100.786 30.7515 101.117 30.4919 101.354 30.3503C102.3 29.7838 103.293 29.5006 104.334 29.5006C105.422 29.5006 105.966 29.9018 105.966 30.7043Z" fill="white"/>
<path d="M134.897 48.9023C134.188 48.383 133.833 47.4389 133.833 46.0699C133.927 43.1431 134.4 40.0983 135.252 36.9355C135.015 37.3132 134.684 37.9033 134.258 38.7058C133.833 39.4611 133.502 40.0275 133.265 40.4052C130.332 44.6537 128.038 47.2737 126.383 48.265C124.254 49.634 122.575 49.8464 121.345 48.9023C120.73 48.383 120.446 47.4389 120.494 46.0699C120.494 42.0102 121.203 38.0921 122.622 34.3156C121.96 35.2597 120.943 36.6287 119.571 38.4225C118.199 40.1691 117.49 41.0661 117.443 41.1133C117.111 41.5853 116.946 41.5381 116.946 40.9716C116.946 40.594 117.064 40.2636 117.301 39.9803C119.95 36.4399 122.149 33.3007 123.899 30.5627C125.602 30.3267 126.714 29.9726 127.234 29.5006C127.754 29.0285 128.015 28.9813 128.015 29.359C128.015 29.5478 127.944 29.7366 127.802 29.9254C126.95 31.2 125.981 33.6075 124.893 37.148C123.805 40.6884 123.261 43.3083 123.261 45.0078C123.261 46.66 123.686 47.4861 124.538 47.4861C126.288 47.4861 128.795 44.8897 132.059 39.6971C132.768 38.5641 133.691 36.8883 134.826 34.6696C135.961 32.451 136.695 31.082 137.026 30.5627C138.681 30.3267 139.769 29.9726 140.29 29.5006C140.857 29.0285 141.141 28.9813 141.141 29.359C141.188 29.5478 141.141 29.7366 140.999 29.9254C140.148 31.1528 139.225 33.5603 138.232 37.148C137.239 40.6884 136.742 43.3083 136.742 45.0078C136.742 46.66 137.239 47.4861 138.232 47.4861C138.705 47.4861 139.367 47.2973 140.219 46.9196C141.07 46.542 141.945 45.9047 142.844 45.0078C146.013 41.7978 148.284 38.3281 149.655 34.5988C150.507 32.3329 150.672 30.6807 150.152 29.6422C149.915 29.2646 149.608 29.0285 149.23 28.9341C148.898 28.7925 148.851 28.6273 149.088 28.4384C149.372 28.2496 149.584 28.1552 149.726 28.1552C149.916 28.1552 150.057 28.1552 150.152 28.1552C152.044 28.6273 152.99 29.6658 152.99 31.2708C152.99 31.9789 152.801 32.805 152.423 33.7491C151.382 36.4399 149.726 39.1778 147.456 41.963C145.233 44.7481 142.891 46.8488 140.431 48.265C138.019 49.6812 136.174 49.8936 134.897 48.9023Z" fill="white"/>
<path d="M174.063 30.7043C174.063 31.318 173.661 32.1913 172.857 33.3243C172.1 34.4572 170.941 36.6051 169.38 39.7679C167.819 42.8835 167.039 44.8661 167.039 45.7159C167.039 46.5184 167.37 46.9196 168.032 46.9196C168.742 46.9196 169.641 46.4948 170.728 45.645C171.864 44.7481 172.857 43.804 173.708 42.8127C174.607 41.8214 175.79 40.4288 177.256 38.6349C177.351 38.7766 177.398 38.989 177.398 39.2722C177.398 39.5555 177.091 40.0983 176.476 40.9008C174.063 44.1581 172.029 46.4239 170.374 47.6985C168.718 48.9731 167.228 49.6104 165.904 49.6104C164.39 49.6104 163.633 48.8787 163.633 47.4153C163.633 45.9047 164.39 43.6388 165.904 40.6176C167.465 37.5492 168.718 34.9765 169.664 32.8994C170.137 31.9081 169.806 31.7193 168.671 32.3329C163.278 35.6846 159.092 41.3021 156.112 49.1855C155.828 49.1855 155.261 49.3271 154.409 49.6104C153.605 49.9408 153.132 50.106 152.99 50.106C152.801 50.106 152.801 49.87 152.99 49.3979C153.227 48.9731 153.629 48.0526 154.196 46.6364C154.811 45.2202 155.544 43.4264 156.396 41.2549C158.051 37.1008 159.163 34.3628 159.731 33.041C157.224 35.7318 154.953 38.4225 152.919 41.1133C152.588 41.5853 152.423 41.5381 152.423 40.9716C152.423 40.594 152.541 40.2636 152.777 39.9803C156.136 35.8262 158.714 32.451 160.511 29.8546C162.876 29.5242 164.248 29.1937 164.626 28.8633C165.005 28.5329 165.241 28.3676 165.336 28.3676C165.431 28.3676 165.478 28.462 165.478 28.6509C165.525 28.8397 165.383 29.1229 165.052 29.5006C164.768 29.831 162.924 33.159 159.518 39.4847C161.788 36.5107 164.437 33.8907 167.465 31.6249C169.404 30.2087 170.989 29.5006 172.218 29.5006C173.448 29.5006 174.063 29.9018 174.063 30.7043Z" fill="white"/>
<path d="M179.532 40.6176C178.823 42.4586 178.468 44.1817 178.468 45.7867C178.468 47.3445 179.438 48.1234 181.377 48.1234C182.087 48.1234 183.009 47.9109 184.144 47.4861C185.989 46.8724 187.905 45.6922 189.891 43.9456C191.878 42.199 193.51 40.4996 194.787 38.8474C194.929 38.989 195 39.1778 195 39.4138C195 39.6499 194.834 40.0039 194.503 40.476C192.753 42.8835 190.577 45.0078 187.976 46.8488C185.374 48.6898 182.725 49.6104 180.029 49.6104C176.529 49.6104 174.778 48.3358 174.778 45.7867C174.778 43.7568 175.866 40.948 178.042 37.3604C179.272 35.4249 181.022 33.6311 183.293 31.9789C185.563 30.2795 187.739 29.4298 189.82 29.4298C191.902 29.4298 192.942 30.4211 192.942 32.4038C192.942 34.4808 192.115 36.0622 190.459 37.148C188.851 38.1865 187.006 39.0362 184.925 39.6971C182.891 40.3108 181.093 40.6176 179.532 40.6176ZM180.1 39.2014C180.384 39.2014 180.904 39.2014 181.661 39.2014C182.465 39.2014 183.411 39.0362 184.499 38.7058C187.195 37.9033 188.945 36.3927 189.749 34.174C189.986 33.5131 190.104 32.8994 190.104 32.3329C190.104 31.7193 189.915 31.2944 189.537 31.0584C189.158 30.7751 188.827 30.6335 188.543 30.6335C185.469 30.6807 182.654 33.5367 180.1 39.2014Z" fill="white"/>
<path d="M76.866 100.599C79.2049 100.599 81.4912 99.9627 83.4359 98.7706C85.3806 97.5786 86.8963 95.8842 87.7914 93.9018C88.6864 91.9194 88.9206 89.7381 88.4643 87.6336C88.008 85.5291 86.8818 83.596 85.2279 82.0788C83.5741 80.5615 81.467 79.5283 79.173 79.1096C76.8791 78.691 74.5014 78.9059 72.3406 79.727C70.1797 80.5481 68.3328 81.9387 67.0334 83.7228C65.734 85.5069 65.0405 87.6044 65.0405 89.7501C65.0405 92.6274 66.2864 95.3869 68.5041 97.4214C70.7218 99.456 73.7297 100.599 76.866 100.599ZM76.4845 98.4992C74.2139 98.4227 72.0485 97.6019 70.381 96.186L75.7979 91.2165C76.007 91.3395 76.2402 91.4239 76.4845 91.4649V98.4992ZM77.2475 98.4992V91.4649C77.4857 91.4196 77.7123 91.3329 77.915 91.2095L83.351 96.179C81.6847 97.5975 79.5191 98.4208 77.2475 98.4992ZM83.8736 95.6995L78.4567 90.73C78.5935 90.5387 78.6882 90.3247 78.7352 90.1001H86.4027C86.3172 92.1841 85.4198 94.1708 83.8736 95.6995ZM86.4027 89.4001H78.7352C78.6858 89.1816 78.5913 88.9737 78.4567 88.7877L83.8736 83.8007C85.4198 85.3294 86.3172 87.3161 86.4027 89.4001ZM77.2475 81.001C79.5181 81.0775 81.6835 81.8983 83.351 83.3142L77.9341 88.2838C77.7251 88.1607 77.4918 88.0763 77.2475 88.0353V81.001ZM78.0104 89.7501C78.0104 89.9577 77.9433 90.1607 77.8175 90.3334C77.6918 90.5061 77.5131 90.6406 77.3039 90.7201C77.0948 90.7995 76.8647 90.8203 76.6427 90.7798C76.4207 90.7393 76.2168 90.6393 76.0568 90.4925C75.8967 90.3457 75.7877 90.1586 75.7436 89.9549C75.6994 89.7513 75.7221 89.5402 75.8087 89.3483C75.8953 89.1565 76.042 88.9925 76.2302 88.8772C76.4184 88.7618 76.6397 88.7002 76.866 88.7002C77.1695 88.7002 77.4606 88.8108 77.6752 89.0077C77.8898 89.2046 78.0104 89.4716 78.0104 89.7501ZM76.4845 81.001V88.0353C76.2463 88.0806 76.0197 88.1673 75.817 88.2908L70.381 83.3213C72.0473 81.9027 74.2129 81.0795 76.4845 81.001ZM69.8584 83.8007L75.2753 88.7702C75.1385 88.9615 75.0438 89.1755 74.9968 89.4001H67.3293C67.4148 87.3161 68.3122 85.3294 69.8584 83.8007ZM74.9968 90.1001C75.0462 90.3186 75.1407 90.5265 75.2753 90.7125L69.8584 95.6995C68.3122 94.1708 67.4148 92.1841 67.3293 90.1001H74.9968Z" fill="white"/>
<path d="M45.9777 70.1764C45.9777 75.0859 44.6532 79.7829 42.0043 84.2674C39.3554 88.7048 35.7368 92.2925 31.1485 95.0304C26.6075 97.7212 21.7117 99.0665 16.4612 99.0665C5.81817 99.0665 0.496673 95.3373 0.496673 87.8787C0.496673 83.3469 2.08129 78.5791 5.25054 73.5753C6.85881 70.9317 8.77455 68.5478 10.9978 66.4236C13.221 64.2521 15.9645 62.4819 19.2283 61.1129C22.4922 59.6967 25.9689 58.9886 29.6585 58.9886C35.2874 58.9886 39.4027 59.9091 42.0043 61.7502C44.6532 63.544 45.9777 66.3528 45.9777 70.1764ZM41.9334 69.5392C41.9334 63.2136 37.889 60.0508 29.8004 60.0508C25.7797 60.0508 21.7353 61.6558 17.6674 64.8658C13.6467 68.0758 10.4065 71.8995 7.94676 76.3368C5.48705 80.7742 4.25719 84.8339 4.25719 88.516C4.25719 94.8416 8.13597 98.0044 15.8935 98.0044C20.5291 98.0044 24.8809 96.541 28.9489 93.6142C33.0642 90.6875 36.2571 87.0526 38.5276 82.7096C40.7981 78.3195 41.9334 73.9293 41.9334 69.5392Z" fill="white"/>
<path d="M78.3856 59.2719C78.3856 59.4607 78.2673 59.5551 78.0308 59.5551C77.8416 59.5551 77.747 59.5079 77.747 59.4135C77.747 58.1389 76.801 57.5016 74.9089 57.5016C73.0168 57.5016 71.243 57.8557 69.5874 58.5638C67.9791 59.2246 66.4891 60.216 65.1173 61.5377C63.7929 62.8595 62.5867 64.2285 61.4987 65.6447C60.4581 67.0608 59.4174 68.8075 58.3768 70.8845C57.3361 72.9144 56.4847 74.661 55.8225 76.1244C55.1602 77.5878 54.3797 79.3816 53.481 81.5059C52.6296 83.583 51.991 85.0936 51.5653 86.0377C51.518 86.2265 51.5416 86.3209 51.6362 86.3209C56.5556 81.4115 60.1743 78.9568 62.4921 78.9568C63.2962 78.9568 63.6983 79.5232 63.6983 80.6562V81.2935C63.1306 85.2116 61.2149 89.1297 57.9511 93.0478C54.7345 96.9187 51.2578 98.8541 47.5209 98.8541C45.2031 98.8541 44.0442 98.2168 44.0442 96.9423C44.0442 96.0454 45.2977 92.7409 47.8047 87.029C47.379 87.5011 46.8114 88.1147 46.1019 88.87C45.4396 89.6253 44.9903 90.1682 44.7538 90.4986C44.5645 90.7819 44.4463 90.7111 44.399 90.2862C44.3517 89.8142 44.5172 89.3657 44.8957 88.9408C45.2741 88.4688 46.0073 87.5955 47.0952 86.3209C48.1832 85.0463 48.9873 84.1022 49.5076 83.4885C54.1432 73.7641 59.1336 66.2819 64.4788 61.0421C68.6886 56.9352 72.3546 54.8817 75.4765 54.8817C76.2333 54.8817 76.8956 55.0941 77.4632 55.519C78.0308 55.8966 78.3383 56.4631 78.3856 57.2184V59.2719ZM60.2216 82.2848C60.2216 81.6711 60.0087 81.3643 59.583 81.3643C58.8734 81.3643 57.7145 82.1196 56.1063 83.6302C54.498 85.1408 53.1972 86.4861 52.2038 87.6663C48.7981 91.5372 47.0952 94.3931 47.0952 96.2342C47.0952 97.1783 47.6865 97.6504 48.869 97.6504C50.0516 97.6504 51.4707 96.8243 53.1262 95.172C54.3561 94.0391 55.8461 91.962 57.5963 88.9408C59.3465 85.9197 60.2216 83.701 60.2216 82.2848Z" fill="white"/>
<path d="M88.7054 95.0304C89.888 94.4167 90.9523 94.1099 91.8983 94.1099C92.8916 94.1099 93.6248 94.1571 94.0978 94.2515C94.5709 94.2987 95.2568 94.6528 96.1555 95.3137C97.1015 96.0217 98.5206 97.2727 100.413 99.0665C103.913 102.56 106.538 104.306 108.288 104.306C109.14 104.212 109.779 103.976 110.204 103.598C110.677 103.268 110.819 102.843 110.63 102.324C110.346 101.285 109.779 100.459 108.927 99.8454C108.738 99.6566 108.785 99.4914 109.069 99.3498C109.353 99.2554 109.566 99.2554 109.708 99.3498C111.079 100.011 111.765 101.144 111.765 102.749C111.765 103.504 111.505 104.259 110.985 105.015C110.464 105.817 109.802 106.383 108.998 106.714C108.194 107.044 107.484 107.21 106.869 107.21L105.521 106.997C104.717 106.761 103.771 106.124 102.683 105.085C101.643 104.047 100.507 102.819 99.2774 101.403C98.0476 100.034 97.2434 99.1137 96.865 98.6417C96.4866 98.2168 96.2264 97.9336 96.0845 97.792C95.9899 97.6504 95.7771 97.3907 95.446 97.0131C95.1148 96.6354 94.8547 96.3994 94.6655 96.305C94.4763 96.1634 94.2161 95.9745 93.885 95.7385C93.6012 95.5025 93.341 95.3373 93.1045 95.2429C92.5369 95.0068 91.8273 94.8888 90.9759 94.8888C90.1245 94.8888 89.2021 95.2193 88.2087 95.8801C87.2627 96.541 86.6714 97.2963 86.4349 98.146C86.1984 98.9485 85.9855 99.515 85.7963 99.8454C85.4179 100.365 85.0395 100.459 84.6611 100.129C84.2827 99.7982 84.0934 99.4914 84.0934 99.2082C84.0934 98.9721 84.259 98.5945 84.5901 98.0752C84.9212 97.5087 85.9855 96.2814 87.783 94.3931C89.5805 92.4577 90.9523 91.0887 91.8983 90.2862C92.8916 89.4365 94.5709 87.9495 96.936 85.8252C99.3484 83.701 101.311 82.0252 102.825 80.7978C96.2974 80.7978 92.6788 81.2935 91.9693 82.2848C91.5435 82.8041 91.1651 83.0165 90.834 82.9221C90.5502 82.8277 90.5738 82.6152 90.905 82.2848C91.2361 81.9544 91.851 81.0102 92.7497 79.4524C92.8916 79.5468 93.6485 79.5941 95.0202 79.5941L104.457 79.3816C104.835 79.3816 105.167 79.6649 105.45 80.2313C105.734 80.7506 105.9 81.2227 105.947 81.6475C99.7978 86.0377 96.3447 88.5396 95.5879 89.1533C94.831 89.7669 92.5369 91.726 88.7054 95.0304Z" fill="white"/>
<path d="M117.468 79.8773C117.468 80.491 117.066 81.3879 116.262 82.568C115.458 83.7482 114.228 85.9433 112.572 89.1533C110.964 92.3161 110.16 94.3223 110.16 95.172C110.16 95.9745 110.491 96.3758 111.153 96.3758C112.052 96.3758 113.589 95.3373 115.765 93.2602C117.941 91.1831 119.928 88.6104 121.725 85.542C123.57 82.4264 124.682 80.7742 125.06 80.5854C127.094 79.5468 128.348 78.9804 128.821 78.886C129.294 78.7916 129.743 78.7443 130.169 78.7443C130.642 78.7443 130.878 78.9096 130.878 79.24C130.878 79.5704 130.665 79.7357 130.24 79.7357C129.246 79.7357 128.442 80.1841 127.827 81.081C126.692 82.686 123.499 89.7434 118.249 102.253C116.924 105.369 115.623 108.036 114.346 110.254C113.069 112.52 111.366 114.763 109.237 116.981C105.406 120.994 101.291 123 96.8916 123C94.9995 123 93.2257 122.575 91.5701 121.725C88.6847 120.215 87.242 117.642 87.242 114.007V112.803C87.242 112.095 87.5258 111.741 88.0934 111.741C88.188 111.741 88.2353 111.789 88.2353 111.883L88.0934 113.653C88.0934 115.777 88.7793 117.406 90.1511 118.539C91.4755 119.719 93.1075 120.309 95.0468 120.309C96.9389 120.309 98.7837 119.955 100.581 119.247C104.602 117.5 108.008 114.715 110.798 110.892C113.637 107.115 116.238 102.489 118.603 97.0131C119.739 94.2279 120.945 90.9471 122.222 87.1706C119.999 90.1918 117.965 92.5993 116.12 94.3931C113.329 97.0839 110.68 98.4293 108.173 98.4293C107.038 98.4293 106.47 97.9808 106.47 97.0839C106.47 95.9509 107.393 93.5434 109.237 89.8614C109.663 89.0117 110.231 87.8551 110.94 86.3917C111.65 84.9283 112.123 83.9606 112.359 83.4885C112.643 83.0165 112.785 82.686 112.785 82.4972C112.785 82.2612 112.714 82.1432 112.572 82.1432C112.241 82.1432 111.319 82.8277 109.805 84.1966C108.291 85.5656 106.541 87.5955 104.555 90.2862C104.271 90.7111 104.105 90.7111 104.058 90.2862C104.011 89.8142 104.129 89.4365 104.413 89.1533C106.352 86.5569 107.913 84.5979 109.096 83.2761C110.325 81.9071 110.988 81.1518 111.082 81.0102C111.224 80.8686 111.484 80.6326 111.863 80.3021C112.288 79.9245 112.62 79.6649 112.856 79.5232C113.802 78.9568 114.796 78.6735 115.836 78.6735C116.924 78.6735 117.468 79.0748 117.468 79.8773Z" fill="white"/>
</svg>
