<svg width="84" height="84" viewBox="0 0 84 84" fill="none" xmlns="http://www.w3.org/2000/svg">
<path d="M71.75 8.75H12.25L17.5 68.25L42 75.25L66.5 68.25L71.75 8.75Z" fill="#0277BD"/>
<path d="M42 14V69.825L61.6 64.225L65.975 14H42Z" fill="#039BE5"/>
<path d="M57.925 22.75H42V29.75H50.575L50.05 36.75H42V43.75H49.7L49.175 51.625L42 54.075V61.425L55.825 56.875L57.05 36.75L57.925 22.75Z" fill="white"/>
<path d="M42.0001 22.75V29.75H26.4251L25.9001 22.75H42.0001ZM33.9501 36.75L34.3001 43.75H42.0001V36.75H33.9501ZM34.6501 47.25H27.6501L28.1751 56.875L42.0001 61.425V54.075L34.8251 51.625L34.6501 47.25Z" fill="#EEEEEE"/>
</svg>
