<svg width="84" height="84" viewBox="0 0 84 84" fill="none" xmlns="http://www.w3.org/2000/svg">
<path d="M71.75 8.75H12.25L17.5 68.25L42 75.25L66.5 68.25L71.75 8.75Z" fill="#E65100"/>
<path d="M42 14V69.825L61.6 64.225L65.975 14H42Z" fill="#FF6D00"/>
<path d="M42 43.75V36.75H57.05L55.825 56.875L42 61.425V54.075L49.175 51.625L49.7 43.75H42ZM57.575 29.75L58.1 22.75H42V29.75H57.575Z" fill="white"/>
<path d="M41.9999 54.075V61.425L28.175 56.875L27.475 47.25H34.475L34.8249 51.625L41.9999 54.075ZM33.425 29.75H41.9999V22.75H26.075L27.3 43.75H41.9999V36.75H33.9499L33.425 29.75Z" fill="#EEEEEE"/>
</svg>
