<svg width="84" height="84" viewBox="0 0 84 84" fill="none" xmlns="http://www.w3.org/2000/svg">
<path d="M10.5 73.5V10.5H73.5V73.5H10.5Z" fill="#FFD600"/>
<path d="M51.6915 57.6572C52.9025 59.6242 54.2185 61.509 57.0063 61.509C59.3478 61.509 60.5763 60.3452 60.5763 58.7352C60.5763 56.8085 59.3058 56.1243 56.7298 55.0025L55.3175 54.4005C51.2418 52.6715 48.531 50.505 48.531 45.9288C48.531 41.7113 51.7598 38.5017 56.805 38.5017C60.3978 38.5017 62.979 39.746 64.841 43.0045L60.4415 45.8167C59.4738 44.0877 58.4273 43.407 56.805 43.407C55.1495 43.407 54.1013 44.4517 54.1013 45.8167C54.1013 47.5037 55.1513 48.1862 57.575 49.231L58.9873 49.833C63.791 51.8787 66.5 53.9682 66.5 58.6652C66.5 63.7262 62.503 66.5 57.1375 66.5C51.8893 66.5 48.909 63.8662 47.25 60.606L51.6915 57.6572ZM31.416 57.8007C32.3015 59.3862 33.6473 60.606 35.5828 60.606C37.4343 60.606 38.5 59.8745 38.5 57.0308V38.5H44.3328V57.9268C44.3328 63.819 40.915 66.5 35.924 66.5C31.4143 66.5 28.1593 63.4445 26.8328 60.606L31.416 57.8007Z" fill="#000001"/>
</svg>
