<svg width="90" height="90" viewBox="0 0 90 90" fill="none" xmlns="http://www.w3.org/2000/svg">
<path d="M37.7335 8C36.707 8 35.6806 8.25181 34.7947 8.75806L6.92236 24.8475C5.12236 25.8882 4 27.8584 4 29.9397V59.1304C4 61.2397 5.12236 63.1819 6.92236 64.2225L14.2393 68.4413C17.783 70.185 19.0467 70.1826 20.6498 70.1826C25.9092 70.1826 28.917 67.0049 28.917 61.4924V31.3734C28.917 30.9234 28.554 30.5549 28.104 30.5549H24.5884C24.1103 30.5549 23.7699 30.9234 23.7699 31.3734V61.465C23.7699 63.94 21.2136 66.3581 17.0792 64.3049L9.42725 59.8884C9.146 59.7478 8.97681 59.4397 8.97681 59.1304V29.9672C8.97681 29.6297 9.146 29.3449 9.42725 29.1761L37.2996 13.0922C37.5527 12.9234 37.8917 12.9234 38.173 13.0922L66.0453 29.1761C66.3265 29.3449 66.4957 29.6303 66.4957 29.9397V59.1304C66.4957 59.4397 66.3259 59.7478 66.0728 59.8884L38.173 76.0054C37.9198 76.146 37.5527 76.146 37.2996 76.0054L30.1255 71.7592C29.9286 71.6185 29.6522 71.5917 29.4553 71.7042C27.4584 72.8292 27.0928 72.969 25.2366 73.6158C24.7866 73.7565 24.083 74.0368 25.4893 74.8243L34.7947 80.3395C35.6947 80.8457 36.71 81.125 37.7225 81.125C38.7632 81.125 39.7724 80.8457 40.6724 80.3395L68.5776 64.2225C70.3776 63.1819 71.5 61.2397 71.5 59.1304V29.9672C71.5 27.8578 70.3776 25.9156 68.5776 24.875L40.6724 8.75806C39.7864 8.25181 38.7601 8 37.7335 8ZM45.2317 30.5165C37.2723 30.5165 32.5205 33.8893 32.5205 39.5143C32.5205 45.6174 37.2411 47.3023 44.8911 48.0616C54.0317 48.9616 54.7349 50.3156 54.7349 52.1156C54.7349 55.2094 52.2359 56.5321 46.3578 56.5321C38.9609 56.5321 37.3286 54.6732 36.7942 51.017C36.7379 50.6232 36.4024 50.3413 36.0087 50.3413H32.3777C31.9277 50.3413 31.5922 50.7104 31.5922 51.1323C31.5922 55.8292 34.1515 61.421 46.3578 61.421C55.189 61.421 60.25 57.9379 60.25 51.8629C60.25 45.8442 56.1712 44.238 47.6212 43.0848C38.9306 41.9598 38.0576 41.369 38.0576 39.344C38.0576 37.6565 38.8192 35.4384 45.2317 35.4384C50.9411 35.4384 53.0775 36.6719 53.9493 40.525C54.0337 40.8906 54.3411 41.1732 54.7349 41.1732H58.3658C58.5908 41.1732 58.7849 41.0618 58.9536 40.8931C59.0942 40.7524 59.1795 40.5255 59.1514 40.2723C58.5889 33.6348 54.1754 30.5165 45.2317 30.5165Z" fill="#21992D"/>
</svg>
