<svg width="275" height="73" viewBox="0 0 275 73" fill="none" xmlns="http://www.w3.org/2000/svg">
<path d="M49.5625 29.0312C49.5625 32.3438 49.0312 35.3281 47.9688 37.9844C46.9375 40.6094 45.5625 42.8594 43.8438 44.7344C42.125 46.5781 40.1562 48 37.9375 49C35.7188 50 33.4219 50.5 31.0469 50.5C29.7344 50.5 28.4375 50.3594 27.1562 50.0781C25.875 49.7656 24.6094 49.2656 23.3594 48.5781C23.6406 50.8906 24.0938 53.2656 24.7188 55.7031C25.25 57.7969 26 60.1406 26.9688 62.7344C27.9688 65.2969 29.2812 67.8125 30.9062 70.2812C27.7188 69.9375 24.8438 69.7031 22.2812 69.5781C19.75 69.4219 17.4531 69.3438 15.3906 69.3438C12.6094 69.3438 10.2656 69.4375 8.35938 69.625C6.48438 69.8125 4.95312 70.0312 3.76562 70.2812C2.39062 70.5625 1.29688 70.8594 0.484375 71.1719C1.26562 68.7656 1.9375 66.1406 2.5 63.2969C3.0625 60.4531 3.53125 57.4844 3.90625 54.3906C4.28125 51.2969 4.5625 48.1406 4.75 44.9219C4.9375 41.6719 5.03125 38.4531 5.03125 35.2656C5.03125 31.7969 4.92188 28.4062 4.70312 25.0938C4.48438 21.75 4.15625 18.625 3.71875 15.7188C3.3125 12.7812 2.79688 10.1094 2.17188 7.70312C1.54688 5.29688 0.828125 3.28125 0.015625 1.65625C1.51562 2.125 3.07812 2.46875 4.70312 2.6875C6.35938 2.875 8.03125 2.96875 9.71875 2.96875C11.25 2.96875 12.7812 2.90625 14.3125 2.78125C15.875 2.625 17.4062 2.46875 18.9062 2.3125C20.4062 2.15625 21.8594 2.01563 23.2656 1.89062C24.6719 1.73438 25.9844 1.65625 27.2031 1.65625C28.5156 1.65625 29.9688 1.82813 31.5625 2.17188C33.1875 2.51562 34.8281 3.10938 36.4844 3.95312C38.1406 4.76562 39.75 5.85938 41.3125 7.23438C42.875 8.60938 44.2656 10.3125 45.4844 12.3438C46.7031 14.375 47.6719 16.7656 48.3906 19.5156C49.1406 22.2656 49.5312 25.4375 49.5625 29.0312ZM22.8438 36.6719C23.625 35.9219 24.5156 35.0156 25.5156 33.9531C26.5469 32.8594 27.5156 31.6875 28.4219 30.4375C29.3281 29.1562 30.0781 27.8438 30.6719 26.5C31.2969 25.1562 31.6094 23.875 31.6094 22.6562C31.6094 21.25 31.2031 20.1406 30.3906 19.3281C29.6094 18.4844 28.7344 18.0625 27.7656 18.0625C26.8906 18.0625 26.1562 18.3594 25.5625 18.9531C25 19.5469 24.5312 20.3281 24.1562 21.2969C23.7812 22.2344 23.5 23.2969 23.3125 24.4844C23.125 25.6406 22.9844 26.7969 22.8906 27.9531C22.7969 29.0781 22.75 30.1406 22.75 31.1406C22.75 32.1094 22.75 32.875 22.75 33.4375C22.75 33.9688 22.75 34.5 22.75 35.0312C22.75 35.5625 22.7812 36.1094 22.8438 36.6719ZM79.1875 69.7188C78.5938 69.6562 77.9062 69.5938 77.125 69.5312C76.4688 69.4688 75.6562 69.4219 74.6875 69.3906C73.7188 69.3594 72.625 69.3438 71.4062 69.3438C69.0625 69.3438 66.25 69.4531 62.9688 69.6719C59.7188 69.8906 56.1406 70.3125 52.2344 70.9375C52.9219 69.5312 53.5156 67.75 54.0156 65.5938C54.5156 63.4375 54.9219 61.1406 55.2344 58.7031C55.5781 56.2344 55.8438 53.7344 56.0312 51.2031C56.2188 48.6719 56.3594 46.3125 56.4531 44.125C56.5469 41.9375 56.5938 40.0469 56.5938 38.4531C56.625 36.8594 56.6406 35.7656 56.6406 35.1719C56.6406 35.0469 56.625 34.5625 56.5938 33.7188C56.5938 32.875 56.5781 31.7812 56.5469 30.4375C56.5156 29.0938 56.4688 27.5625 56.4062 25.8438C56.3438 24.0938 56.25 22.2812 56.125 20.4062C56.0312 18.5312 55.8906 16.6406 55.7031 14.7344C55.5469 12.8281 55.3438 11.0312 55.0938 9.34375C54.875 7.65625 54.6094 6.14062 54.2969 4.79688C54.0156 3.42188 53.6719 2.34375 53.2656 1.5625C56.2969 2.09375 59.1562 2.46875 61.8438 2.6875C64.5312 2.875 66.9844 2.96875 69.2031 2.96875C70.7344 2.96875 72.125 2.9375 73.375 2.875C74.625 2.8125 75.6875 2.73438 76.5625 2.64062C77.5938 2.54688 78.5 2.4375 79.2812 2.3125C77.875 6.21875 76.875 9.95312 76.2812 13.5156C75.7188 17.0469 75.4375 20.1562 75.4375 22.8438C75.4375 26.2812 75.8906 28.8125 76.7969 30.4375C77.7031 32.0312 78.9531 32.8281 80.5469 32.8281C82.5156 32.8281 83.9062 31.8281 84.7188 29.8281C85.5312 27.7969 85.9375 25 85.9375 21.4375C85.9375 19.5 85.8438 17.5469 85.6562 15.5781C85.4688 13.6094 85.1875 11.7188 84.8125 9.90625C84.4688 8.09375 84.0469 6.39062 83.5469 4.79688C83.0781 3.20312 82.5625 1.79688 82 0.578125C85.125 1.17188 88.0469 1.5625 90.7656 1.75C93.4844 1.9375 95.9062 2.03125 98.0312 2.03125C99.4688 2.03125 100.75 2 101.875 1.9375C103 1.875 103.969 1.8125 104.781 1.75C105.719 1.65625 106.531 1.5625 107.219 1.46875C106.875 3.21875 106.547 5.20312 106.234 7.42188C105.953 9.64062 105.703 12.0312 105.484 14.5938C105.266 17.125 105.094 19.8125 104.969 22.6562C104.875 25.5 104.828 28.4219 104.828 31.4219C104.828 34.8281 104.906 38.2969 105.062 41.8281C105.219 45.3281 105.469 48.7969 105.812 52.2344C106.188 55.6719 106.641 59.0312 107.172 62.3125C107.734 65.5625 108.391 68.6406 109.141 71.5469C108.547 71.4844 107.859 71.4219 107.078 71.3594C106.422 71.2969 105.609 71.25 104.641 71.2188C103.672 71.1875 102.578 71.1719 101.359 71.1719C99.0156 71.1719 96.2031 71.2812 92.9219 71.5C89.6719 71.7188 86.0938 72.1406 82.1875 72.7656C82.625 71.8906 83.0469 70.7656 83.4531 69.3906C83.8594 68.0156 84.2188 66.5312 84.5312 64.9375C84.8438 63.3438 85.0938 61.7031 85.2812 60.0156C85.4688 58.2969 85.5625 56.6719 85.5625 55.1406C85.5625 52.2031 85.1406 49.9844 84.2969 48.4844C83.4844 46.9531 82.3281 46.1875 80.8281 46.1875C79.5156 46.1875 78.4531 46.7969 77.6406 48.0156C76.8281 49.2344 76.4219 51.1562 76.4219 53.7812C76.4219 55 76.5 56.2812 76.6562 57.625C76.8125 58.9688 77.0156 60.3281 77.2656 61.7031C77.5156 63.0781 77.8125 64.4531 78.1562 65.8281C78.5 67.1719 78.8438 68.4688 79.1875 69.7188ZM165.109 38.5938C165.109 43.3438 164.578 47.8125 163.516 52C162.453 56.1562 160.844 59.7969 158.688 62.9219C156.531 66.0156 153.797 68.4531 150.484 70.2344C147.203 72.0469 143.312 72.9531 138.812 72.9531C134.344 72.9531 130.453 72.0469 127.141 70.2344C123.859 68.4531 121.125 66.0156 118.938 62.9219C116.781 59.7969 115.172 56.1562 114.109 52C113.047 47.8125 112.516 43.3438 112.516 38.5938C112.516 35.0938 112.844 31.7188 113.5 28.4688C114.156 25.2188 115.062 22.1875 116.219 19.375C117.375 16.5625 118.766 14 120.391 11.6875C122.016 9.375 123.797 7.40625 125.734 5.78125C127.703 4.125 129.781 2.84375 131.969 1.9375C134.188 1.03125 136.469 0.578125 138.812 0.578125C142.75 0.578125 146.328 1.54688 149.547 3.48438C152.797 5.39062 155.562 8.04688 157.844 11.4531C160.156 14.8594 161.938 18.875 163.188 23.5C164.469 28.125 165.109 33.1562 165.109 38.5938ZM145.938 34.5625C145.938 32.2188 145.75 30.0625 145.375 28.0938C145 26.0938 144.484 24.375 143.828 22.9375C143.203 21.4688 142.453 20.3281 141.578 19.5156C140.703 18.6719 139.781 18.25 138.812 18.25C137.875 18.25 136.984 18.75 136.141 19.75C135.297 20.7188 134.547 21.9844 133.891 23.5469C133.266 25.1094 132.766 26.8594 132.391 28.7969C132.016 30.7344 131.828 32.6562 131.828 34.5625C131.828 36.4062 131.984 38.125 132.297 39.7188C132.641 41.2812 133.109 42.6406 133.703 43.7969C134.297 44.9531 135.016 45.875 135.859 46.5625C136.734 47.2188 137.719 47.5469 138.812 47.5469C139.875 47.5469 140.844 47.2188 141.719 46.5625C142.625 45.875 143.375 44.9531 143.969 43.7969C144.594 42.6406 145.078 41.2812 145.422 39.7188C145.766 38.125 145.938 36.4062 145.938 34.5625ZM206.406 69.8125C205.688 69.75 204.859 69.6875 203.922 69.625C203.109 69.5625 202.156 69.5156 201.062 69.4844C199.969 69.4531 198.734 69.4375 197.359 69.4375C195.047 69.4375 192.438 69.5312 189.531 69.7188C186.656 69.875 183.609 70.1875 180.391 70.6562C181.484 66.0312 182.312 61.5781 182.875 57.2969C183.438 53.0156 183.859 49.2031 184.141 45.8594C184.453 41.9531 184.641 38.2812 184.703 34.8438C184.703 33.375 184.672 31.7656 184.609 30.0156C184.547 28.5156 184.469 26.7812 184.375 24.8125C184.281 22.8125 184.156 20.6562 184 18.3438C182.531 19.75 181.062 21.2656 179.594 22.8906C178.156 24.4844 176.766 26.1562 175.422 27.9062C174.078 29.625 172.812 31.375 171.625 33.1562C170.469 34.9375 169.453 36.6875 168.578 38.4062L169.703 2.59375C172.641 2.9375 175.734 3.20312 178.984 3.39062C182.266 3.57812 185.609 3.67188 189.016 3.67188C193.891 3.67188 198.719 3.5 203.5 3.15625C208.281 2.8125 212.672 2.3125 216.672 1.65625L218.406 37.8438C216.156 33.5625 213.656 29.5469 210.906 25.7969C208.188 22.0156 205.281 18.8594 202.188 16.3281C201.938 18.4531 201.75 20.6875 201.625 23.0312C201.531 25.3438 201.484 27.7188 201.484 30.1562C201.484 33.3125 201.578 36.5625 201.766 39.9062C201.984 43.2188 202.281 46.5625 202.656 49.9375C203.062 53.3125 203.578 56.6719 204.203 60.0156C204.828 63.3594 205.562 66.625 206.406 69.8125ZM274.047 38.5938C274.047 43.3438 273.516 47.8125 272.453 52C271.391 56.1562 269.781 59.7969 267.625 62.9219C265.469 66.0156 262.734 68.4531 259.422 70.2344C256.141 72.0469 252.25 72.9531 247.75 72.9531C243.281 72.9531 239.391 72.0469 236.078 70.2344C232.797 68.4531 230.062 66.0156 227.875 62.9219C225.719 59.7969 224.109 56.1562 223.047 52C221.984 47.8125 221.453 43.3438 221.453 38.5938C221.453 35.0938 221.781 31.7188 222.438 28.4688C223.094 25.2188 224 22.1875 225.156 19.375C226.312 16.5625 227.703 14 229.328 11.6875C230.953 9.375 232.734 7.40625 234.672 5.78125C236.641 4.125 238.719 2.84375 240.906 1.9375C243.125 1.03125 245.406 0.578125 247.75 0.578125C251.688 0.578125 255.266 1.54688 258.484 3.48438C261.734 5.39062 264.5 8.04688 266.781 11.4531C269.094 14.8594 270.875 18.875 272.125 23.5C273.406 28.125 274.047 33.1562 274.047 38.5938ZM254.875 34.5625C254.875 32.2188 254.688 30.0625 254.312 28.0938C253.938 26.0938 253.422 24.375 252.766 22.9375C252.141 21.4688 251.391 20.3281 250.516 19.5156C249.641 18.6719 248.719 18.25 247.75 18.25C246.812 18.25 245.922 18.75 245.078 19.75C244.234 20.7188 243.484 21.9844 242.828 23.5469C242.203 25.1094 241.703 26.8594 241.328 28.7969C240.953 30.7344 240.766 32.6562 240.766 34.5625C240.766 36.4062 240.922 38.125 241.234 39.7188C241.578 41.2812 242.047 42.6406 242.641 43.7969C243.234 44.9531 243.953 45.875 244.797 46.5625C245.672 47.2188 246.656 47.5469 247.75 47.5469C248.812 47.5469 249.781 47.2188 250.656 46.5625C251.562 45.875 252.312 44.9531 252.906 43.7969C253.531 42.6406 254.016 41.2812 254.359 39.7188C254.703 38.125 254.875 36.4062 254.875 34.5625Z" fill="white"/>
</svg>
