<svg width="232" height="31" viewBox="0 0 232 31" fill="none" xmlns="http://www.w3.org/2000/svg">
<path d="M10.555 10.83C9.865 10.53 9.175 10.38 8.485 10.38C7.075 10.38 5.86 10.89 4.84 11.91C3.82 12.93 3.31 14.145 3.31 15.555V30H0.25V15.555C0.25 13.935 0.67 12.465 1.51 11.145C2.38 9.795 3.505 8.79 4.885 8.13L4.975 8.085C6.085 7.575 7.255 7.32 8.485 7.32C10.405 7.32 12.115 7.905 13.615 9.075L10.555 10.83ZM16.3994 20.415C16.7594 22.335 17.7044 23.94 19.2344 25.23C20.7644 26.49 22.5194 27.12 24.4994 27.12C25.9694 27.12 27.3194 26.775 28.5494 26.085C29.7794 25.395 30.7694 24.45 31.5194 23.25L34.1744 24.78C33.1544 26.43 31.7894 27.75 30.0794 28.74C28.3694 29.73 26.5094 30.225 24.4994 30.225C22.4594 30.225 20.5694 29.715 18.8294 28.695C17.0894 27.675 15.7094 26.295 14.6894 24.555C13.6694 22.815 13.1594 20.925 13.1594 18.885C13.1594 16.815 13.6694 14.925 14.6894 13.215C15.7094 11.475 17.0894 10.095 18.8294 9.075C20.5694 8.055 22.4594 7.545 24.4994 7.545C26.5394 7.545 28.4294 8.055 30.1694 9.075C31.9094 10.095 33.2894 11.475 34.3094 13.215C35.3294 14.925 35.8394 16.815 35.8394 18.885C35.8394 19.245 35.8094 19.755 35.7494 20.415H16.3994ZM24.4994 10.605C23.1794 10.605 21.8894 10.92 20.6294 11.55C19.3694 12.15 18.3494 12.99 17.5694 14.07C16.7894 15.12 16.3994 16.26 16.3994 17.49H32.5994C32.5994 16.26 32.2094 15.12 31.4294 14.07C30.6494 12.99 29.6294 12.15 28.3694 11.55C27.1394 10.92 25.8494 10.605 24.4994 10.605ZM42.1492 23.97C42.3892 24.81 42.7642 25.47 43.2742 25.95C44.1142 26.73 45.3442 27.12 46.9642 27.12C48.3742 27.12 49.5142 26.79 50.3842 26.13C51.2542 25.47 51.6892 24.615 51.6892 23.565C51.6892 22.575 51.4942 21.84 51.1042 21.36C50.7142 20.88 50.2042 20.58 49.5742 20.46C48.9742 20.31 48.1342 20.22 47.0542 20.19C45.4942 20.1 44.2192 19.935 43.2292 19.695C42.2392 19.425 41.3392 18.84 40.5292 17.94C39.5392 16.71 39.0442 15.36 39.0442 13.89C39.0442 13.53 39.0592 13.26 39.0892 13.08C39.3292 11.19 40.1242 9.75 41.4742 8.76C42.8242 7.74 44.6392 7.23 46.9192 7.23H46.9642C48.6442 7.23 50.0092 7.545 51.0592 8.175C52.1092 8.805 52.9192 9.57 53.4892 10.47C54.0892 11.46 54.4642 12.495 54.6142 13.575H51.4642C51.4042 13.155 51.2092 12.66 50.8792 12.09C50.1292 10.95 48.8242 10.35 46.9642 10.29C45.0742 10.29 43.8292 10.605 43.2292 11.235C42.6292 11.865 42.2692 12.6 42.1492 13.44C42.1192 13.56 42.1042 13.725 42.1042 13.935C42.1042 14.655 42.3592 15.3 42.8692 15.87C43.2892 16.38 43.8292 16.725 44.4892 16.905C45.1492 17.055 46.0942 17.175 47.3242 17.265C48.3142 17.325 49.1542 17.415 49.8442 17.535C50.5642 17.655 51.2392 17.88 51.8692 18.21C53.8192 19.26 54.7942 21.045 54.7942 23.565C54.7942 24.435 54.6142 25.275 54.2542 26.085C53.9242 26.865 53.4442 27.555 52.8142 28.155C51.4042 29.535 49.4692 30.225 47.0092 30.225C44.6092 30.225 42.6592 29.55 41.1592 28.2C39.9892 27.06 39.2692 25.65 38.9992 23.97H42.1492ZM68.9541 10.56H65.2191V30H62.1141V10.56H58.3791V7.5H62.1141V0.074999H65.2191V7.5H68.9541V10.56ZM93.9361 8.085V30H90.8311V25.86C88.7611 28.77 86.0011 30.225 82.5511 30.225C80.4811 30.225 78.5761 29.73 76.8361 28.74C75.0961 27.72 73.7161 26.34 72.6961 24.6C71.7061 22.86 71.2111 20.97 71.2111 18.93C71.2111 16.86 71.7061 14.955 72.6961 13.215C73.7161 11.475 75.0961 10.11 76.8361 9.12C78.5761 8.1 80.4811 7.59 82.5511 7.59C84.6811 7.59 86.4211 8.04 87.7711 8.94C89.1511 9.81 90.1711 10.755 90.8311 11.775V8.085H93.9361ZM82.5511 27.165C84.0511 27.165 85.4311 26.805 86.6911 26.085C87.9511 25.335 88.9411 24.33 89.6611 23.07C90.4111 21.81 90.7861 20.43 90.7861 18.93C90.7861 17.43 90.4111 16.05 89.6611 14.79C88.9411 13.5 87.9511 12.495 86.6911 11.775C85.4311 11.025 84.0511 10.65 82.5511 10.65C81.0511 10.65 79.6561 11.025 78.3661 11.775C77.1061 12.495 76.1011 13.5 75.3511 14.79C74.6311 16.05 74.2711 17.43 74.2711 18.93C74.2711 20.43 74.6311 21.81 75.3511 23.07C76.1011 24.33 77.1061 25.335 78.3661 26.085C79.6561 26.805 81.0511 27.165 82.5511 27.165ZM106.929 30.18C105.309 30.18 103.809 29.79 102.429 29.01C101.079 28.2 99.9988 27.12 99.1888 25.77C98.3788 24.39 97.9738 22.89 97.9738 21.27V7.5H101.079V21.27C101.079 22.32 101.334 23.295 101.844 24.195C102.384 25.095 103.104 25.815 104.004 26.355C104.904 26.865 105.879 27.12 106.929 27.12C107.979 27.12 108.954 26.865 109.854 26.355C110.754 25.815 111.459 25.095 111.969 24.195C112.509 23.295 112.779 22.32 112.779 21.27V7.5H115.839V29.775H112.779V27.615C112.029 28.455 111.144 29.1 110.124 29.55C109.134 29.97 108.069 30.18 106.929 30.18ZM130.658 10.83C129.968 10.53 129.278 10.38 128.588 10.38C127.178 10.38 125.963 10.89 124.943 11.91C123.923 12.93 123.413 14.145 123.413 15.555V30H120.353V15.555C120.353 13.935 120.773 12.465 121.613 11.145C122.483 9.795 123.608 8.79 124.988 8.13L125.078 8.085C126.188 7.575 127.358 7.32 128.588 7.32C130.508 7.32 132.218 7.905 133.718 9.075L130.658 10.83ZM155.987 8.085V30H152.882V25.86C150.812 28.77 148.052 30.225 144.602 30.225C142.532 30.225 140.627 29.73 138.887 28.74C137.147 27.72 135.767 26.34 134.747 24.6C133.757 22.86 133.262 20.97 133.262 18.93C133.262 16.86 133.757 14.955 134.747 13.215C135.767 11.475 137.147 10.11 138.887 9.12C140.627 8.1 142.532 7.59 144.602 7.59C146.732 7.59 148.472 8.04 149.822 8.94C151.202 9.81 152.222 10.755 152.882 11.775V8.085H155.987ZM144.602 27.165C146.102 27.165 147.482 26.805 148.742 26.085C150.002 25.335 150.992 24.33 151.712 23.07C152.462 21.81 152.837 20.43 152.837 18.93C152.837 17.43 152.462 16.05 151.712 14.79C150.992 13.5 150.002 12.495 148.742 11.775C147.482 11.025 146.102 10.65 144.602 10.65C143.102 10.65 141.707 11.025 140.417 11.775C139.157 12.495 138.152 13.5 137.402 14.79C136.682 16.05 136.322 17.43 136.322 18.93C136.322 20.43 136.682 21.81 137.402 23.07C138.152 24.33 139.157 25.335 140.417 26.085C141.707 26.805 143.102 27.165 144.602 27.165ZM169.385 7.5C171.005 7.5 172.49 7.905 173.84 8.715C175.22 9.495 176.315 10.575 177.125 11.955C177.935 13.305 178.34 14.79 178.34 16.41V30H175.235V16.41C175.235 15.36 174.965 14.4 174.425 13.53C173.915 12.63 173.21 11.925 172.31 11.415C171.41 10.875 170.435 10.605 169.385 10.605C168.335 10.605 167.36 10.875 166.46 11.415C165.56 11.925 164.84 12.63 164.3 13.53C163.79 14.4 163.535 15.36 163.535 16.41V30H160.475V8.085H163.535V10.065C164.285 9.225 165.155 8.595 166.145 8.175C167.165 7.725 168.245 7.5 169.385 7.5ZM192.528 10.56H188.793V30H185.688V10.56H181.953V7.5H185.688V0.074999H188.793V7.5H192.528V10.56ZM206.723 10.56H202.988V30H199.883V10.56H196.148V7.5H199.883V0.074999H202.988V7.5H206.723V10.56ZM212.22 20.415C212.58 22.335 213.525 23.94 215.055 25.23C216.585 26.49 218.34 27.12 220.32 27.12C221.79 27.12 223.14 26.775 224.37 26.085C225.6 25.395 226.59 24.45 227.34 23.25L229.995 24.78C228.975 26.43 227.61 27.75 225.9 28.74C224.19 29.73 222.33 30.225 220.32 30.225C218.28 30.225 216.39 29.715 214.65 28.695C212.91 27.675 211.53 26.295 210.51 24.555C209.49 22.815 208.98 20.925 208.98 18.885C208.98 16.815 209.49 14.925 210.51 13.215C211.53 11.475 212.91 10.095 214.65 9.075C216.39 8.055 218.28 7.545 220.32 7.545C222.36 7.545 224.25 8.055 225.99 9.075C227.73 10.095 229.11 11.475 230.13 13.215C231.15 14.925 231.66 16.815 231.66 18.885C231.66 19.245 231.63 19.755 231.57 20.415H212.22ZM220.32 10.605C219 10.605 217.71 10.92 216.45 11.55C215.19 12.15 214.17 12.99 213.39 14.07C212.61 15.12 212.22 16.26 212.22 17.49H228.42C228.42 16.26 228.03 15.12 227.25 14.07C226.47 12.99 225.45 12.15 224.19 11.55C222.96 10.92 221.67 10.605 220.32 10.605Z" fill="#BDFF00"/>
</svg>
