<svg width="761" height="1024" viewBox="0 0 761 1024" fill="none" xmlns="http://www.w3.org/2000/svg">
<g clip-path="url(#clip0)">
<path fill-rule="evenodd" clip-rule="evenodd" d="M763.5 -1.38991C765.759 46.0708 772.308 93.2738 772.934 140.799C741.926 138.448 710.822 137.721 679.782 135.847C676.77 89.9123 668.408 44.4608 667.317 -1.61531C699.378 -2.23352 731.445 -1.91797 763.5 -1.38991Z" fill="#36868E"/>
<path fill-rule="evenodd" clip-rule="evenodd" d="M765.702 274.017C760.66 314.761 760.034 346.786 762.408 386.068C728.784 387.176 695.178 390.982 661.425 391.793C659.83 349.606 666.423 311.297 672.64 268.904C678.857 226.511 682.782 179.746 679.751 136.124C710.803 137.734 741.964 137.882 772.864 141.385C773.834 184.074 770.738 233.273 765.702 274.017Z" fill="#D33367"/>
<path fill-rule="evenodd" clip-rule="evenodd" d="M762.485 385.534C766.04 428.763 764.4 471.948 763.812 515.242C731.898 515.126 699.984 515.667 668.07 515.635C667.278 474.196 663.602 432.93 661.438 391.555C695.229 390.995 728.796 387.755 762.485 385.534Z" fill="#94C0D4"/>
<path fill-rule="evenodd" clip-rule="evenodd" d="M763.812 515.242C763.283 557.796 760.71 600.291 763.71 642.813C732.747 644.03 701.752 645.498 670.757 645.002C668.255 601.908 668.842 558.775 668.089 515.635C699.997 515.667 731.905 515.126 763.812 515.242Z" fill="#F4B943"/>
<path fill-rule="evenodd" clip-rule="evenodd" d="M763.71 642.813C767.093 689.771 770.361 736.717 769.85 783.843C738.364 782.046 706.858 780.674 675.384 778.453C677.005 733.896 673.393 689.449 670.744 645.009C701.752 645.505 732.747 644.037 763.71 642.813Z" fill="#D33367"/>
<path d="M665.229 907.981C633.073 905.695 601.228 900.421 569.129 897.516C573.597 854.937 579.501 812.474 580.261 769.611C611.901 772.412 643.706 776.173 675.321 778.433C706.935 780.694 738.287 782.027 769.863 783.836C769.263 826.879 764.227 869.665 761.815 912.63C729.632 910.821 697.386 910.261 665.229 907.981Z" fill="#94C0D4"/>
<path fill-rule="evenodd" clip-rule="evenodd" d="M761.815 912.618C759.868 952.46 766.921 992.006 766.219 1031.83C731.714 1032.69 697.214 1034.53 662.689 1033.39C663.468 991.594 662.345 949.743 665.243 908C697.399 910.209 729.633 910.821 761.815 912.618Z" fill="#F4B943"/>
<path fill-rule="evenodd" clip-rule="evenodd" d="M557.264 126.586C523.301 124.764 507.74 124.873 477.945 124.467C477.504 82.371 476.521 40.4553 474.938 -1.69264C503.47 -1.69263 514.193 -1.69263 547.135 -1.49944C580.076 -1.30625 631.676 -0.77819 668.429 -1.69263C671.161 44.2933 679.266 89.8672 680.734 135.789C643.107 133.387 591.234 128.396 557.264 126.586Z" fill="#F4B943"/>
<path fill-rule="evenodd" clip-rule="evenodd" d="M466.819 124.899C500.437 124.03 547.817 124.899 582.661 128.035C617.505 131.172 646.579 133.593 680.051 135.879C682.323 180.828 678.602 225.629 672.825 270.269C639.973 266.302 612.15 261.859 578.257 254.814C544.364 247.769 497.297 245.283 463.628 248.555C429.958 251.826 406.693 255.902 375.544 261.331C383.912 217.818 382.208 173.577 380.855 129.626C411.869 128.274 433.233 125.775 466.819 124.899Z" fill="#36868E"/>
<path fill-rule="evenodd" clip-rule="evenodd" d="M573.827 530.44C573.355 487.229 558.802 425.73 558.846 379.931C558.891 334.132 575.218 298.295 580.593 254.943C611.045 261.505 641.543 267.275 672.448 269.754C666.844 311.85 659.148 349.973 661.375 393.982C663.603 437.991 670.431 494.696 670.744 536.76C671.057 578.824 668.784 606.815 670.744 645.923C639.774 644.036 608.907 640.385 578.11 638.247C576.22 598.688 574.306 573.657 573.827 530.44Z" fill="#F1E3CF"/>
<path fill-rule="evenodd" clip-rule="evenodd" d="M579.961 769.591C547.772 766.758 514.62 765.457 482.156 766.462C486.107 720.36 489.918 674.181 489.816 627.86C519.86 628.504 548.474 632.677 578.467 636.998C608.46 641.319 640.081 644.423 670.68 644.99C673.565 689.424 676.878 733.858 675.474 778.453C643.406 776.121 612.143 772.431 579.961 769.591Z" fill="#75CBB3"/>
<path fill-rule="evenodd" clip-rule="evenodd" d="M550.588 1028.28C518.597 1027.64 502.863 1030.35 474.217 1032.04C476.221 987.357 474.734 942.672 475.238 897.922C504.401 896.975 521.463 894.799 553.715 896.493C585.968 898.186 629.671 905.399 664.547 907.955C662.747 949.768 663.985 991.594 661.949 1033.37C627.111 1032.04 582.578 1028.94 550.588 1028.28Z" fill="#D33367"/>
<path fill-rule="evenodd" clip-rule="evenodd" d="M581.909 255.187C576.369 296.402 560.292 338.255 560.043 380.287C525.352 373.989 489.165 368.455 453.951 370.883C458.783 329.148 470.929 288.809 478.206 247.518C512.577 245.946 548.118 248.806 581.909 255.187Z" fill="#94C0D4"/>
<path fill-rule="evenodd" clip-rule="evenodd" d="M471.434 493.566C461.017 453.325 449.649 412.87 453.945 370.787C489.242 369.241 524.213 369.962 558.834 378.708C558.872 425.073 573.317 481.202 573.808 524.767C574.3 568.331 576.119 597.323 578.148 638.041C548.851 631.601 519.63 628.794 489.778 627.963C459.925 627.132 429.653 630.988 399.966 634.446C400.949 594.648 394.348 554.859 377.733 518.585C408.958 509.086 438.402 495.337 471.434 493.566Z" fill="#D33367"/>
<path fill-rule="evenodd" clip-rule="evenodd" d="M476.055 897.941C445.347 899.931 405.835 906.817 375.23 908.189C374.681 863.426 375.651 814.212 381.645 769.579C414.255 768.239 449.451 767.473 482.125 766.443C514.799 765.412 547.645 766.771 580.242 769.579C579.502 812.448 573.604 854.918 569.085 897.484C538.237 894.818 506.756 896.009 476.055 897.941Z" fill="#36868E"/>
<path fill-rule="evenodd" clip-rule="evenodd" d="M475.806 -1.68604C475.947 40.5134 479.636 82.5776 481.48 124.719C448.085 125.105 414.805 128.106 381.461 129.6C381.117 85.894 380.07 42.2392 380.012 -1.44777C411.927 -1.46065 443.858 -1.54007 475.806 -1.68604Z" fill="#1A9E78"/>
<path fill-rule="evenodd" clip-rule="evenodd" d="M454.054 370.845C449.477 412.703 461.196 453.421 471.428 493.566C438.428 495.356 409.023 509.054 377.74 518.565C359.587 478.62 350.275 438.79 352.49 394.356C354.705 349.922 368.211 305.256 376.068 261.286C409.948 255.175 443.841 249.314 478.181 247.531C471.038 288.88 458.617 328.993 454.054 370.845Z" fill="#75CBB3"/>
<path fill-rule="evenodd" clip-rule="evenodd" d="M489.893 627.873C489.765 674.174 486.261 720.373 482.086 766.456C449.502 767.518 416.981 770.171 384.429 771.511C390.901 725.737 398.612 680.067 400.137 633.765C429.945 630.05 459.842 627.474 489.893 627.873Z" fill="#1A9E78"/>
<path fill-rule="evenodd" clip-rule="evenodd" d="M475.851 897.974C474.37 942.652 475.748 987.363 474.88 1032.06C442.06 1034.77 409.571 1030.93 376.878 1028.35C383.791 987.84 385.438 946.922 384.984 905.882C415.373 904.491 445.507 899.989 475.851 897.974Z" fill="#F1E3CF"/>
<path fill-rule="evenodd" clip-rule="evenodd" d="M380.012 -1.44778C380.07 42.2392 381.172 88.6051 381.517 132.299C351.69 133.587 320.391 132.479 290.526 132.299C289.192 87.5812 284.105 43.2438 282.528 -1.44779C314.423 -2.02736 348.098 -1.4671 380.012 -1.44778Z" fill="#D33367"/>
<path fill-rule="evenodd" clip-rule="evenodd" d="M291.641 132.382C321.928 133.136 351.378 129.162 381.193 131.159C383.784 179.74 381.937 243.832 372.688 287.59C363.44 331.348 355.993 355.422 352.061 396.037C320.651 400.326 288.035 408.62 255.84 405.117C254.997 375.423 265.012 333.217 271.574 308.167C278.135 283.117 276.68 288.011 281.524 267.874C250.778 266.747 222.024 255.973 191.973 251.002C200.367 209.717 202.256 167.814 199.696 125.82C230.053 128.943 261.355 131.616 291.641 132.382Z" fill="#F4B943"/>
<path fill-rule="evenodd" clip-rule="evenodd" d="M191.303 250.828C222.624 256.585 251.797 263.407 282.996 266.35C273.192 312.027 258.173 357.431 256.386 404.448C289.181 404.338 320.702 402.972 352.425 394.363C350.402 438.153 359.821 478.849 377.859 518.601C344.541 528.306 308.83 530.44 274.573 531.464C240.317 532.488 207.317 530.672 173.373 527.162C169.193 500.373 165.548 461.909 164.667 438.146C163.786 414.384 164.744 412.851 164.974 393.12C137.451 389.9 110.081 383.177 82.1371 382.636C84.0073 335.665 89.905 289.138 92.9432 242.295C125.406 241.477 159.989 245.077 191.303 250.828Z" fill="#1A9E78"/>
<path fill-rule="evenodd" clip-rule="evenodd" d="M399.518 653.361C396.257 695.954 390.957 731.664 385.691 772.807C357.192 772.807 326.815 775.222 298.399 776.974C300.799 736.964 303.884 701.182 300.948 659.93C298.012 618.677 284.741 571.656 271.299 531.382C306.06 529.451 343.981 526.702 377.778 517.969C398.382 558.398 402.779 610.768 399.518 653.361Z" fill="#36868E"/>
<path fill-rule="evenodd" clip-rule="evenodd" d="M172.569 902.069C122.087 894.342 130.985 893.955 89.1839 894C99.2178 860.855 95.3753 858.904 101.439 818.166C107.503 777.429 99.9837 690.673 89.1839 644.339C123.09 640.037 161.323 651.584 194.68 644.339C205.626 687.64 212.909 731.604 209.283 776.263C267.891 779.058 326.038 773.932 384.773 771.569C376.297 815.822 388.278 861.229 382.271 905.366C322.522 912.824 222.994 909.797 172.569 902.069Z" fill="#75CBB3"/>
<path fill-rule="evenodd" clip-rule="evenodd" d="M167.055 900.897C199.748 906.081 250.907 908.38 286.415 907.897C321.922 907.414 351.373 907.446 385.349 905.836C385.106 946.902 383.836 987.827 377.051 1028.33C343.579 1026.13 312.374 1025.34 277.855 1026.32C243.337 1027.3 196.41 1030.1 164.687 1027.73C132.964 1025.36 119.222 1024.88 91.1185 1023.93C93.0972 979.899 90.1866 935.903 92.3951 891.753C121.348 893.929 134.362 895.707 167.055 900.897Z" fill="#94C0D4"/>
<path fill-rule="evenodd" clip-rule="evenodd" d="M199.62 125.891C202.377 167.749 200.296 209.762 191.96 250.937C159.261 244.955 126.089 241.735 92.8347 242.218C94.9538 201.455 97.941 160.273 96.8431 119.529C95.7453 78.7845 93.4922 38.6329 92.2347 -2.03384C121.494 -0.945532 137.553 -2.21415 170.105 -2.10468C202.658 -1.9952 248.104 -0.926208 283.49 -1.68609C287.056 42.9626 289.909 87.6112 292.05 132.26C261.029 131.964 230.411 128.673 199.62 125.891Z" fill="#75CBB3"/>
<path fill-rule="evenodd" clip-rule="evenodd" d="M274.185 531.567C285.437 567.153 295.088 603.293 299.167 640.508C264.285 641.049 229.237 639.11 194.616 644.552C184.793 606.255 178.357 565.821 172.861 526.713C206.403 528.574 240.566 532.771 274.185 531.567Z" fill="#D33367"/>
<path fill-rule="evenodd" clip-rule="evenodd" d="M299.167 640.508C304.395 685.489 302.327 730.85 298.989 775.896C269.091 777.042 239.175 777.686 209.278 776.244C212.814 731.72 205.691 687.556 194.597 644.552C229.237 639.097 264.285 641.048 299.167 640.508Z" fill="#F4B943"/>
<path fill-rule="evenodd" clip-rule="evenodd" d="M173.932 527.132C179.772 568.907 184.697 604.935 194.674 644.932C161.26 649.581 127.775 652.35 94.0354 651.597C87.8568 607.807 85.7377 566.425 83.925 521.585C82.1122 476.746 80.491 428.39 82.1569 382.835C110.139 383.602 138.828 387.39 166.326 392.934C163.205 436.158 168.098 485.358 173.932 527.132Z" fill="#F1E3CF"/>
<path fill-rule="evenodd" clip-rule="evenodd" d="M92.9818 -1.95012C92.669 38.5041 95.9945 78.8489 96.9072 119.277C62.5995 117.886 28.2917 116.702 -5.98413 114.679C-4.01822 74.3411 -2.97144 33.9706 -2.15444 -6.38709C29.5555 -4.73208 61.2718 -3.4055 92.9818 -1.95012Z" fill="#F1E3CF"/>
<path fill-rule="evenodd" clip-rule="evenodd" d="M96.9072 119.277C97.705 160.337 95.1136 201.313 92.803 242.276C59.893 243.049 26.9958 244.382 -5.92691 244.176C-5.86308 201.03 -8.02685 157.826 -5.98434 114.673C28.3171 116.695 62.5994 117.886 96.9072 119.277Z" fill="#94C0D4"/>
<path fill-rule="evenodd" clip-rule="evenodd" d="M92.7842 242.282C90.0778 289.118 86.0707 338.874 84.3537 385.794C55.9947 384.937 22.394 387.929 -5.94619 388.354C-4.61182 341.344 -5.97136 291.186 -5.94619 244.163C26.9961 244.388 59.8933 243.055 92.7842 242.282Z" fill="#75CBB3"/>
<path fill-rule="evenodd" clip-rule="evenodd" d="M85.6734 554.061C88.4372 599.358 89.6755 614.195 94.1562 653.232C58.5144 648.789 23.4279 643.573 -12.2586 643.09C-9.74377 605.952 -7.79064 593.408 -6.59067 550.036C-5.39069 506.665 -4.57365 436.137 -2.88219 387.156C25.5662 383.505 55.6107 378.546 84.193 382.661C81.0208 433.65 82.9096 508.764 85.6734 554.061Z" fill="#36868E"/>
<path fill-rule="evenodd" clip-rule="evenodd" d="M94.0284 651.346C99.824 690.306 106.794 729.33 105.447 768.89C69.9203 766.41 34.3487 764.736 -1.18458 762.45C-4.376 722.066 -15.597 681.953 -12.1949 641.229C23.2107 644.7 58.4504 650.013 94.0284 651.346Z" fill="#94C0D4"/>
<path fill-rule="evenodd" clip-rule="evenodd" d="M105.447 768.89C103.737 810.104 96.6645 850.828 93.1411 891.888C60.9333 891.173 29.1849 897.375 -2.88892 899.229C-2.88892 853.623 2.01314 808.03 -1.18466 762.443C34.3487 764.729 69.9203 766.423 105.447 768.89Z" fill="#1A9E78"/>
<path fill-rule="evenodd" clip-rule="evenodd" d="M93.1416 891.895C89.6055 935.859 92.6756 979.951 91.8012 1023.99C60.3273 1023.6 28.8599 1024.31 -2.61393 1024.41C-2.25649 982.682 -2.80545 940.959 -2.88843 899.236C29.179 897.368 60.9337 891.193 93.1416 891.895Z" fill="#F4B943"/>
</g>
<defs>
<clipPath id="clip0">
<rect width="1024" height="761" fill="white" transform="translate(761) rotate(90)"/>
</clipPath>
</defs>
</svg>
