<svg width="206" height="202" viewBox="0 0 206 202" fill="none" xmlns="http://www.w3.org/2000/svg">
<path d="M124.528 71.208C124.528 66.696 122.896 62.568 119.632 58.824C116.368 55.08 112.24 51.384 107.248 47.736C98.032 41.208 87.52 35.352 75.712 30.168C74.368 38.328 72.448 50.568 69.952 66.888C69.28 71.208 68.128 78.408 66.496 88.488C64.96 98.568 63.472 107.544 62.032 115.416C70.672 111.96 78.16 108.792 84.496 105.912C90.832 102.936 96.88 99.72 102.64 96.264C108.976 92.616 114.208 88.824 118.336 84.888C122.464 80.952 124.528 76.392 124.528 71.208ZM124.528 43.416C134.512 51.288 139.504 59.496 139.504 68.04C139.504 69.288 139.36 70.632 139.072 72.072C137.92 77.928 134.992 83.16 130.288 87.768C125.584 92.376 119.68 96.936 112.576 101.448C93.856 113.256 70.864 123.48 43.6 132.12C42.352 132.504 41.104 132.696 39.856 132.696C38.416 132.696 37.312 132.408 36.544 131.832C35.68 131.16 35.248 130.344 35.248 129.384C35.248 128.424 35.728 127.464 36.688 126.504C37.552 125.448 38.848 124.584 40.576 123.912L46.768 121.464C46.096 120.792 45.904 120.024 46.192 119.16L53.104 77.256C55.792 59.784 58.672 42.36 61.744 24.984L61.888 24.264C59.776 23.304 56.512 21.96 52.096 20.232C50.752 19.656 50.08 18.888 50.08 17.928C50.08 16.488 51.376 15 53.968 13.464C56.656 11.832 59.152 11.016 61.456 11.016C62.416 11.016 63.088 11.112 63.472 11.304C77.584 17.064 89.296 22.248 98.608 26.856C108.016 31.464 116.656 36.984 124.528 43.416Z" fill="black"/>
<path d="M134.136 115.608C134.04 116.184 133.992 116.592 133.992 116.832C133.992 118.752 134.928 119.712 136.8 119.712C137.904 119.712 139.248 119.4 140.832 118.776C142.272 118.2 144.936 116.976 148.824 115.104C148.92 113.904 149.016 112.752 149.112 111.648C149.256 110.496 149.376 109.464 149.472 108.552L149.976 103.584C146.664 105.168 144.192 106.416 142.56 107.328C140.16 108.72 138.24 110.04 136.8 111.288C135.36 112.488 134.472 113.928 134.136 115.608ZM152.856 81.696C155.016 81.696 156.456 82.248 157.176 83.352C157.944 84.408 158.328 85.968 158.328 88.032L158.256 90.048C158.064 93.552 157.632 98.688 156.96 105.456C156.816 106.416 156.648 108.024 156.456 110.28C156.264 111.672 156.096 112.8 155.952 113.664C156.48 113.952 156.744 114.336 156.744 114.816C156.744 115.152 156.576 115.656 156.24 116.328L155.952 116.688L155.52 117.12C155.184 119.568 155.016 121.656 155.016 123.384C155.688 123.768 156.024 124.224 156.024 124.752C156.024 125.568 155.424 126.432 154.224 127.344C153.888 127.584 153.504 127.824 153.072 128.064C152.736 128.256 152.256 128.424 151.632 128.568C151.056 128.712 150.48 128.784 149.904 128.784C148.128 128.784 147.312 128.136 147.456 126.84L148.032 120.792C141.6 123.864 136.656 125.4 133.2 125.4C128.832 125.4 126.648 123.048 126.648 118.344C126.648 113.832 128.976 109.992 133.632 106.824C138.336 103.656 143.952 100.8 150.48 98.256C150.672 96.384 150.816 94.488 150.912 92.568C150.912 92.184 150.936 91.704 150.984 91.128C151.032 90.552 151.056 89.904 151.056 89.184C151.056 88.272 150.984 87.672 150.84 87.384L150.624 87.096H150.552C149.832 87.096 148.488 88.08 146.52 90.048C144.744 91.776 142.536 94.368 139.896 97.824C139.512 98.352 138.864 98.784 137.952 99.12C137.088 99.456 136.2 99.624 135.288 99.624C134.616 99.624 134.04 99.504 133.56 99.264C133.128 99.024 132.912 98.664 132.912 98.184C132.912 97.8 133.104 97.296 133.488 96.672C140.112 86.688 146.568 81.696 152.856 81.696ZM190.779 82.416C192.699 83.472 193.659 85.704 193.659 89.112C193.659 90.36 193.539 91.752 193.299 93.288C193.059 94.776 192.795 96.192 192.507 97.536L192.003 100.416L188.979 122.808C189.939 123.048 190.347 123.648 190.203 124.608C189.675 127.248 187.803 128.928 184.587 129.648L183.867 129.72C183.051 129.72 182.331 129.552 181.707 129.216C181.083 128.88 180.819 128.352 180.915 127.632C182.931 113.04 184.419 102.096 185.379 94.8C185.427 94.608 185.523 94.056 185.667 93.144C185.859 92.232 185.955 91.368 185.955 90.552C185.955 89.016 185.547 88.224 184.731 88.176C184.107 88.08 183.075 88.944 181.635 90.768C180.243 92.544 179.475 93.528 179.331 93.72C176.451 96.984 173.763 100.632 171.267 104.664C170.115 111.672 169.203 117.336 168.531 121.656L168.171 123.96C168.027 124.872 167.355 125.664 166.155 126.336C164.955 127.008 163.779 127.344 162.627 127.344C161.907 127.344 161.331 127.2 160.899 126.912C160.515 126.576 160.371 126.096 160.467 125.472C161.715 118.128 162.699 112.128 163.419 107.472C163.131 107.184 162.987 106.848 162.987 106.464C162.987 106.224 163.059 105.96 163.203 105.672C163.347 105.432 163.467 105.216 163.563 105.024C163.707 104.832 163.827 104.664 163.923 104.52L166.803 87.096C166.947 86.232 167.595 85.488 168.747 84.864C169.899 84.24 171.051 83.928 172.203 83.928C172.923 83.928 173.475 84.072 173.859 84.36C174.243 84.648 174.387 85.08 174.291 85.656C174.051 87.24 173.715 89.28 173.283 91.776L176.307 88.536C178.323 86.52 180.243 84.864 182.067 83.568C183.891 82.272 185.739 81.624 187.611 81.624C188.811 81.624 189.867 81.888 190.779 82.416Z" fill="black"/>
<path d="M89.528 116.208C89.528 111.696 87.896 107.568 84.632 103.824C81.368 100.08 77.24 96.384 72.248 92.736C63.032 86.208 52.52 80.352 40.712 75.168C39.368 83.328 37.448 95.568 34.952 111.888C34.28 116.208 33.128 123.408 31.496 133.488C29.96 143.568 28.472 152.544 27.032 160.416C35.672 156.96 43.16 153.792 49.496 150.912C55.832 147.936 61.88 144.72 67.64 141.264C73.976 137.616 79.208 133.824 83.336 129.888C87.464 125.952 89.528 121.392 89.528 116.208ZM89.528 88.416C99.512 96.288 104.504 104.496 104.504 113.04C104.504 114.288 104.36 115.632 104.072 117.072C102.92 122.928 99.992 128.16 95.288 132.768C90.584 137.376 84.68 141.936 77.576 146.448C58.856 158.256 35.864 168.48 8.6 177.12C7.352 177.504 6.104 177.696 4.856 177.696C3.416 177.696 2.312 177.408 1.544 176.832C0.68 176.16 0.248 175.344 0.248 174.384C0.248 173.424 0.728 172.464 1.688 171.504C2.552 170.448 3.848 169.584 5.576 168.912L11.768 166.464C11.096 165.792 10.904 165.024 11.192 164.16L18.104 122.256C20.792 104.784 23.672 87.36 26.744 69.984L26.888 69.264C24.776 68.304 21.512 66.96 17.096 65.232C15.752 64.656 15.08 63.888 15.08 62.928C15.08 61.488 16.376 60 18.968 58.464C21.656 56.832 24.152 56.016 26.456 56.016C27.416 56.016 28.088 56.112 28.472 56.304C42.584 62.064 54.296 67.248 63.608 71.856C73.016 76.464 81.656 81.984 89.528 88.416Z" fill="black"/>
<path d="M93.136 166.608C93.04 167.184 92.992 167.592 92.992 167.832C92.992 169.752 93.928 170.712 95.8 170.712C96.904 170.712 98.248 170.4 99.832 169.776C101.272 169.2 103.936 167.976 107.824 166.104C107.92 164.904 108.016 163.752 108.112 162.648C108.256 161.496 108.376 160.464 108.472 159.552L108.976 154.584C105.664 156.168 103.192 157.416 101.56 158.328C99.16 159.72 97.24 161.04 95.8 162.288C94.36 163.488 93.472 164.928 93.136 166.608ZM111.856 132.696C114.016 132.696 115.456 133.248 116.176 134.352C116.944 135.408 117.328 136.968 117.328 139.032L117.256 141.048C117.064 144.552 116.632 149.688 115.96 156.456C115.816 157.416 115.648 159.024 115.456 161.28C115.264 162.672 115.096 163.8 114.952 164.664C115.48 164.952 115.744 165.336 115.744 165.816C115.744 166.152 115.576 166.656 115.24 167.328L114.952 167.688L114.52 168.12C114.184 170.568 114.016 172.656 114.016 174.384C114.688 174.768 115.024 175.224 115.024 175.752C115.024 176.568 114.424 177.432 113.224 178.344C112.888 178.584 112.504 178.824 112.072 179.064C111.736 179.256 111.256 179.424 110.632 179.568C110.056 179.712 109.48 179.784 108.904 179.784C107.128 179.784 106.312 179.136 106.456 177.84L107.032 171.792C100.6 174.864 95.656 176.4 92.2 176.4C87.832 176.4 85.648 174.048 85.648 169.344C85.648 164.832 87.976 160.992 92.632 157.824C97.336 154.656 102.952 151.8 109.48 149.256C109.672 147.384 109.816 145.488 109.912 143.568C109.912 143.184 109.936 142.704 109.984 142.128C110.032 141.552 110.056 140.904 110.056 140.184C110.056 139.272 109.984 138.672 109.84 138.384L109.624 138.096H109.552C108.832 138.096 107.488 139.08 105.52 141.048C103.744 142.776 101.536 145.368 98.896 148.824C98.512 149.352 97.864 149.784 96.952 150.12C96.088 150.456 95.2 150.624 94.288 150.624C93.616 150.624 93.04 150.504 92.56 150.264C92.128 150.024 91.912 149.664 91.912 149.184C91.912 148.8 92.104 148.296 92.488 147.672C99.112 137.688 105.568 132.696 111.856 132.696ZM161.803 133.488C162.235 132.96 162.859 132.552 163.675 132.264C164.491 131.976 165.307 131.832 166.123 131.832C166.891 131.832 167.515 131.976 167.995 132.264C168.523 132.504 168.787 132.864 168.787 133.344C168.787 133.776 168.571 134.28 168.139 134.856C164.155 140.136 160.819 145.848 158.131 151.992C155.491 158.088 153.187 164.856 151.219 172.296C151.027 173.064 150.427 173.736 149.419 174.312C148.411 174.84 147.379 175.104 146.323 175.104C145.555 175.104 144.907 174.936 144.379 174.6C143.899 174.264 143.635 173.736 143.587 173.016C143.155 168.552 142.603 162.048 141.931 153.504C137.755 161.76 134.539 168.504 132.283 173.736C132.091 174.504 131.491 175.176 130.483 175.752C129.523 176.28 128.539 176.544 127.531 176.544C126.907 176.544 126.331 176.4 125.803 176.112C125.083 175.872 124.723 175.464 124.723 174.888C124.723 174.744 124.771 174.528 124.867 174.24C124.339 168.336 123.691 159.432 122.923 147.528L122.203 136.944C122.155 136.032 122.683 135.24 123.787 134.568C124.891 133.896 126.067 133.56 127.315 133.56C128.035 133.56 128.635 133.728 129.115 134.064C129.595 134.352 129.859 134.808 129.907 135.432L131.491 159.408C134.323 153.552 137.467 147.576 140.923 141.48C140.971 140.664 141.547 139.944 142.651 139.32C143.755 138.696 144.883 138.384 146.035 138.384C146.947 138.384 147.619 138.6 148.051 139.032C148.435 139.368 148.603 139.728 148.555 140.112L148.627 140.256C148.867 143.088 149.275 147.744 149.851 154.224C153.259 146.016 157.243 139.104 161.803 133.488Z" fill="black"/>
</svg>
