<svg width="50" height="48" viewBox="0 0 50 48" fill="none" xmlns="http://www.w3.org/2000/svg">
<rect x="0.5" y="0.5" width="49" height="47" rx="9.5" fill="#F6CB51" stroke="black"/>
<path d="M31.132 18.052C31.132 16.924 30.724 15.892 29.908 14.956C29.092 14.02 28.06 13.096 26.812 12.184C24.508 10.552 21.88 9.088 18.928 7.792C18.592 9.832 18.112 12.892 17.488 16.972C17.32 18.052 17.032 19.852 16.624 22.372C16.24 24.892 15.868 27.136 15.508 29.104C17.668 28.24 19.54 27.448 21.124 26.728C22.708 25.984 24.22 25.18 25.66 24.316C27.244 23.404 28.552 22.456 29.584 21.472C30.616 20.488 31.132 19.348 31.132 18.052ZM31.132 11.104C33.628 13.072 34.876 15.124 34.876 17.26C34.876 17.572 34.84 17.908 34.768 18.268C34.48 19.732 33.748 21.04 32.572 22.192C31.396 23.344 29.92 24.484 28.144 25.612C23.464 28.564 17.716 31.12 10.9 33.28C10.588 33.376 10.276 33.424 9.964 33.424C9.604 33.424 9.328 33.352 9.136 33.208C8.92 33.04 8.812 32.836 8.812 32.596C8.812 32.356 8.932 32.116 9.172 31.876C9.388 31.612 9.712 31.396 10.144 31.228L11.692 30.616C11.524 30.448 11.476 30.256 11.548 30.04L13.276 19.564C13.948 15.196 14.668 10.84 15.436 6.496L15.472 6.316C14.944 6.076 14.128 5.74 13.024 5.308C12.688 5.164 12.52 4.972 12.52 4.732C12.52 4.372 12.844 4 13.492 3.616C14.164 3.208 14.788 3.004 15.364 3.004C15.604 3.004 15.772 3.028 15.868 3.076C19.396 4.516 22.324 5.812 24.652 6.964C27.004 8.116 29.164 9.496 31.132 11.104Z" fill="black"/>
<path d="M37.9133 29.677C37.9133 28.549 37.5053 27.517 36.6893 26.581C35.8733 25.645 34.8413 24.721 33.5933 23.809C31.2893 22.177 28.6613 20.713 25.7093 19.417C25.3733 21.457 24.8933 24.517 24.2693 28.597C24.1013 29.677 23.8133 31.477 23.4053 33.997C23.0213 36.517 22.6493 38.761 22.2893 40.729C24.4493 39.865 26.3213 39.073 27.9053 38.353C29.4893 37.609 31.0013 36.805 32.4413 35.941C34.0253 35.029 35.3333 34.081 36.3653 33.097C37.3973 32.113 37.9133 30.973 37.9133 29.677ZM37.9133 22.729C40.4093 24.697 41.6573 26.749 41.6573 28.885C41.6573 29.197 41.6213 29.533 41.5493 29.893C41.2613 31.357 40.5293 32.665 39.3533 33.817C38.1773 34.969 36.7013 36.109 34.9253 37.237C30.2453 40.189 24.4973 42.745 17.6813 44.905C17.3693 45.001 17.0573 45.049 16.7452 45.049C16.3852 45.049 16.1092 44.977 15.9172 44.833C15.7013 44.665 15.5933 44.461 15.5933 44.221C15.5933 43.981 15.7132 43.741 15.9532 43.501C16.1692 43.237 16.4932 43.021 16.9253 42.853L18.4733 42.241C18.3053 42.073 18.2573 41.881 18.3293 41.665L20.0573 31.189C20.7293 26.821 21.4493 22.465 22.2173 18.121L22.2533 17.941C21.7253 17.701 20.9093 17.365 19.8053 16.933C19.4693 16.789 19.3013 16.597 19.3013 16.357C19.3013 15.997 19.6253 15.625 20.2733 15.241C20.9453 14.833 21.5693 14.629 22.1453 14.629C22.3853 14.629 22.5533 14.653 22.6493 14.701C26.1773 16.141 29.1053 17.437 31.4333 18.589C33.7852 19.741 35.9453 21.121 37.9133 22.729Z" fill="black"/>
</svg>
